<svg width="34" height="34" viewBox="0 0 34 34" fill="none" xmlns="http://www.w3.org/2000/svg">
<path d="M16.8227 0.413574C7.59677 0.413574 0.115776 7.95026 0.115776 17.1762C0.115776 26.4021 7.65246 33.9017 16.8784 33.8831C26.1229 33.8831 33.6225 26.3464 33.6039 17.1205C33.5853 7.89457 26.0672 0.413574 16.8227 0.413574ZM31.2278 15.9696H24.9349C24.7678 10.7533 23.5426 6.33525 21.6863 3.55077C26.9211 5.40709 30.7637 10.215 31.2464 15.9696M16.8784 31.5813C14.261 31.5813 11.3651 26.1979 11.0867 18.3271H22.633C22.3917 26.1794 19.4958 31.5813 16.8784 31.5813ZM11.0867 16.0067C11.328 8.13589 14.2239 2.73398 16.8413 2.73398C19.4587 2.73398 22.3546 8.11733 22.633 15.9881H11.0867V16.0067ZM11.9963 3.60645C10.1399 6.39094 8.93332 10.809 8.78482 16.0438H2.47331C2.91883 10.3078 6.76142 5.49991 11.9777 3.60645M2.47331 18.3271H8.76625C8.93332 23.5434 10.1585 27.9615 12.0148 30.7459C6.77999 28.8896 2.91883 24.0817 2.45475 18.3271M21.7048 30.7274C23.5612 27.9429 24.7678 23.5063 24.9163 18.29H31.2092C30.7637 24.026 26.9211 28.8339 21.7048 30.7274Z" fill="#555554"/>
</svg>
