<svg width="34" height="34" viewBox="0 0 34 34" fill="none" xmlns="http://www.w3.org/2000/svg">
<path d="M25.696 6.32764C24.6193 6.32764 23.7283 7.21867 23.7283 8.29534C23.7283 9.37201 24.6193 10.263 25.696 10.263C26.7727 10.263 27.6637 9.37201 27.6637 8.29534C27.6637 7.21867 26.7727 6.32764 25.696 6.3462" fill="#555554"/>
<path d="M16.9712 8.85212C12.4232 8.85212 8.72916 12.5648 8.72916 17.1128C8.72916 21.6608 12.4418 25.3549 16.9898 25.3363C21.5378 25.3177 25.2319 21.6236 25.2319 17.0756C25.2319 12.5276 21.5192 8.83356 16.9712 8.85212ZM16.9898 22.3662C14.0754 22.3662 11.6993 20.0086 11.6993 17.0942C11.6993 14.1798 14.0568 11.8037 16.9712 11.8037C19.8857 11.8037 22.2618 14.1612 22.2618 17.0756C22.2618 19.9901 19.9042 22.3662 16.9898 22.3662Z" fill="#555554"/>
<path d="M23.5612 33.8194H10.1957C4.64527 33.8565 0.134397 29.3456 0.115833 23.7952V10.4482C0.0972701 4.89783 4.58958 0.386955 10.14 0.368392H23.5055C29.056 0.331265 33.5668 4.84214 33.5854 10.374V23.7395C33.6225 29.2899 29.1116 33.8008 23.5612 33.8008M10.14 3.52415C6.33453 3.52415 3.23446 6.62421 3.23446 10.4297V23.7952C3.27159 27.6007 6.37165 30.7008 10.1771 30.6822H23.5427C27.3481 30.6451 30.4482 27.545 30.4482 23.7395V10.3926C30.4111 6.58708 27.311 3.48702 23.5055 3.50558H10.14V3.52415Z" fill="#555554"/>
</svg>
