<svg width="259" height="118" viewBox="0 0 259 118" fill="none" xmlns="http://www.w3.org/2000/svg">
<g filter="url(#filter0_d_81_320)">
<rect x="117.254" y="0.909668" width="136.746" height="108.172" rx="15.3074" fill="white"/>
</g>
<path d="M119.295 64.1802H251.959V92.7539C251.959 100.644 245.563 107.041 237.672 107.041H133.582C125.692 107.041 119.295 100.644 119.295 92.7539V64.1802Z" fill="#E73C61"/>
<g filter="url(#filter1_d_81_320)">
<path d="M19.7623 0.911885H98.8466C100.785 0.911885 102.705 1.29378 104.497 2.03577C106.288 2.77776 107.916 3.8653 109.287 5.23632C110.658 6.60733 111.745 8.23496 112.487 10.0263C113.229 11.8176 113.611 13.7375 113.611 15.6764V94.7585C113.611 98.6743 112.056 102.43 109.287 105.199C106.518 107.967 102.762 109.523 98.8466 109.523H19.7623C15.8471 109.523 12.0923 107.968 9.32378 105.199C6.55531 102.431 5 98.6759 5 94.7607V15.6742C5 11.7584 6.55554 8.00298 9.32443 5.2341C12.0933 2.46521 15.8487 0.909668 19.7645 0.909668L19.7623 0.911885Z" fill="white"/>
</g>
<path d="M132.89 52.2104V20.7531H138.637V34.5788L144.851 20.7531H150.327L144.307 34.8118L150.948 52.2104H145.239L139.958 37.8799L138.637 40.2877V52.2104H132.89ZM151.967 52.2104L158.258 20.7531H164.395L170.686 52.2104H165.365L164.123 44.9481H158.647L157.365 52.2104H151.967ZM159.229 41.2975H163.501L161.365 28.0931L159.229 41.2975ZM173.698 52.2104V20.7531H181.232C183.355 20.7531 185.142 21.012 186.592 21.5298C188.067 22.0217 189.181 22.8761 189.931 24.093C190.708 25.3099 191.097 26.9669 191.097 29.064C191.097 30.3327 190.98 31.4719 190.747 32.4816C190.514 33.4914 190.113 34.3587 189.543 35.0837C188.999 35.7827 188.236 36.3264 187.252 36.7148L191.64 52.2104H185.892L182.087 37.8022H179.446V52.2104H173.698ZM179.446 34.1904H181.232C182.345 34.1904 183.226 34.0351 183.873 33.7244C184.546 33.3878 185.025 32.87 185.31 32.1709C185.595 31.446 185.737 30.5269 185.737 29.4136C185.737 27.8342 185.439 26.6562 184.844 25.8795C184.274 25.0769 183.174 24.6755 181.543 24.6755H179.446V34.1904ZM195.39 52.2104L195.933 20.7531H201.875L206.342 42.5402L211.002 20.7531H216.75L217.332 52.2104H213.06L212.594 30.3456L208.128 52.2104H204.672L200.128 30.268L199.701 52.2104H195.39ZM220.385 52.2104L226.677 20.7531H232.813L239.105 52.2104H233.784L232.541 44.9481H227.065L225.784 52.2104H220.385ZM227.648 41.2975H231.92L229.784 28.0931L227.648 41.2975Z" fill="#555554"/>
<path d="M135.948 90.5459C135.326 90.5459 134.807 90.4266 134.389 90.188C133.972 89.9409 133.656 89.5831 133.443 89.1144C133.23 88.6458 133.111 88.0707 133.085 87.3891L134.709 87.0696C134.726 87.47 134.772 87.8236 134.849 88.1303C134.934 88.4371 135.058 88.6756 135.22 88.8461C135.39 89.0079 135.612 89.0889 135.884 89.0889C136.191 89.0889 136.408 88.9994 136.536 88.8205C136.664 88.633 136.728 88.3987 136.728 88.1176C136.728 87.666 136.626 87.2954 136.421 87.0057C136.217 86.716 135.944 86.4263 135.603 86.1366L134.3 84.9864C133.933 84.6711 133.639 84.3218 133.418 83.9384C133.205 83.5464 133.098 83.065 133.098 82.4942C133.098 81.6762 133.337 81.0457 133.814 80.6027C134.291 80.1596 134.943 79.9381 135.769 79.9381C136.255 79.9381 136.66 80.0148 136.984 80.1681C137.307 80.313 137.563 80.5174 137.75 80.7816C137.946 81.0457 138.091 81.3482 138.185 81.689C138.279 82.0213 138.338 82.3749 138.364 82.7498L136.753 83.0309C136.736 82.7072 136.698 82.4175 136.638 82.1619C136.587 81.9063 136.489 81.706 136.344 81.5612C136.208 81.4163 136.004 81.3439 135.731 81.3439C135.45 81.3439 135.233 81.4376 135.079 81.6251C134.934 81.804 134.862 82.0298 134.862 82.3025C134.862 82.6518 134.934 82.9415 135.079 83.1715C135.224 83.3931 135.433 83.6231 135.705 83.8617L136.996 84.9991C137.422 85.357 137.784 85.7787 138.083 86.2644C138.389 86.7415 138.543 87.3209 138.543 88.0025C138.543 88.4967 138.432 88.9355 138.21 89.3189C137.997 89.7023 137.695 90.0048 137.303 90.2263C136.92 90.4394 136.468 90.5459 135.948 90.5459ZM142.545 90.5203C142.008 90.5203 141.565 90.4223 141.216 90.2263C140.866 90.0219 140.602 89.7279 140.423 89.3445C140.253 88.9611 140.168 88.4967 140.168 87.9514V85.472C140.168 84.9267 140.253 84.4624 140.423 84.0789C140.602 83.6955 140.866 83.4058 141.216 83.2099C141.565 83.0054 142.008 82.9031 142.545 82.9031C143.082 82.9031 143.525 83.0054 143.874 83.2099C144.232 83.4058 144.496 83.6955 144.666 84.0789C144.845 84.4624 144.935 84.9267 144.935 85.472V87.9514C144.935 88.4967 144.845 88.9611 144.666 89.3445C144.496 89.7279 144.232 90.0219 143.874 90.2263C143.525 90.4223 143.082 90.5203 142.545 90.5203ZM142.558 89.3189C142.754 89.3189 142.898 89.2636 142.992 89.1528C143.086 89.042 143.146 88.8929 143.171 88.7055C143.197 88.5095 143.209 88.2965 143.209 88.0664V85.357C143.209 85.1269 143.197 84.9182 143.171 84.7307C143.146 84.5433 143.086 84.3942 142.992 84.2834C142.898 84.1641 142.754 84.1045 142.558 84.1045C142.362 84.1045 142.217 84.1641 142.123 84.2834C142.029 84.3942 141.965 84.5433 141.931 84.7307C141.906 84.9182 141.893 85.1269 141.893 85.357V88.0664C141.893 88.2965 141.906 88.5095 141.931 88.7055C141.965 88.8929 142.029 89.042 142.123 89.1528C142.217 89.2636 142.362 89.3189 142.558 89.3189ZM147.249 90.4053V84.2323H146.457V83.0182H147.249V82.5453C147.249 82.1022 147.287 81.7188 147.364 81.395C147.449 81.0627 147.62 80.8071 147.875 80.6282C148.139 80.4493 148.536 80.3598 149.064 80.3598C149.226 80.3598 149.379 80.3683 149.524 80.3854C149.669 80.3939 149.831 80.4109 150.01 80.4365V81.7273C149.941 81.7103 149.861 81.6975 149.767 81.689C149.682 81.672 149.601 81.6634 149.524 81.6634C149.319 81.6634 149.179 81.7273 149.102 81.8551C149.026 81.9829 148.987 82.1704 148.987 82.4175V83.0182H150.01V84.2323H148.987V90.4053H147.249ZM153.674 90.4947C153.205 90.4947 152.835 90.4181 152.562 90.2647C152.298 90.1113 152.11 89.8898 152 89.6001C151.889 89.3104 151.834 88.9653 151.834 88.5649V84.1684H151.092V83.0182H151.834V80.8071H153.584V83.0182H154.709V84.1684H153.584V88.4115C153.584 88.6671 153.64 88.8503 153.751 88.9611C153.861 89.0633 154.028 89.1144 154.249 89.1144C154.343 89.1144 154.432 89.1102 154.517 89.1017C154.611 89.0931 154.701 89.0846 154.786 89.0761V90.4053C154.641 90.4223 154.471 90.4394 154.275 90.4564C154.087 90.482 153.887 90.4947 153.674 90.4947ZM157.33 90.4053L156.192 83.0182H157.636L158.288 87.8108L159.055 83.0182H160.346L161.074 87.862L161.777 83.0182H163.145L161.982 90.4053H160.512L159.694 85.7404L158.838 90.4053H157.33ZM166.324 90.5203C165.992 90.5203 165.706 90.4351 165.468 90.2647C165.229 90.0858 165.046 89.8642 164.918 89.6001C164.79 89.3275 164.727 89.0463 164.727 88.7566C164.727 88.2965 164.812 87.9088 164.982 87.5936C165.153 87.2783 165.378 87.0142 165.659 86.8012C165.941 86.5882 166.26 86.405 166.618 86.2516C166.976 86.0897 167.338 85.9449 167.704 85.8171V85.1781C167.704 84.9651 167.687 84.7861 167.653 84.6413C167.628 84.4964 167.572 84.3857 167.487 84.309C167.41 84.2323 167.287 84.194 167.116 84.194C166.972 84.194 166.852 84.228 166.759 84.2962C166.673 84.3644 166.61 84.4624 166.567 84.5902C166.533 84.7094 166.512 84.85 166.503 85.0119L166.477 85.4592L164.829 85.3953C164.854 84.5433 165.063 83.9171 165.455 83.5166C165.855 83.1076 166.46 82.9031 167.27 82.9031C168.011 82.9031 168.548 83.1076 168.88 83.5166C169.221 83.9256 169.391 84.4794 169.391 85.1781V88.5904C169.391 88.8631 169.396 89.1102 169.404 89.3317C169.421 89.5532 169.438 89.7535 169.455 89.9324C169.481 90.1113 169.502 90.2689 169.519 90.4053H167.96C167.934 90.2349 167.9 90.0432 167.858 89.8302C167.824 89.6086 167.798 89.4467 167.781 89.3445C167.696 89.6427 167.534 89.9154 167.295 90.1624C167.057 90.401 166.733 90.5203 166.324 90.5203ZM166.963 89.2295C167.074 89.2295 167.176 89.2039 167.27 89.1528C167.372 89.0931 167.462 89.025 167.538 88.9483C167.615 88.8716 167.67 88.8035 167.704 88.7438V86.6862C167.517 86.7969 167.338 86.9077 167.168 87.0184C167.006 87.1292 166.861 87.2528 166.733 87.3891C166.614 87.5169 166.52 87.6575 166.452 87.8108C166.392 87.9642 166.362 88.1431 166.362 88.3476C166.362 88.6203 166.414 88.8375 166.516 88.9994C166.627 89.1528 166.776 89.2295 166.963 89.2295ZM171.477 90.4053V83.0182H173.215V84.1556C173.47 83.7211 173.726 83.4101 173.981 83.2226C174.237 83.0267 174.518 82.9287 174.825 82.9287C174.876 82.9287 174.919 82.933 174.953 82.9415C174.995 82.9415 175.042 82.9457 175.093 82.9543V84.7563C174.991 84.7137 174.876 84.6796 174.748 84.6541C174.629 84.62 174.505 84.6029 174.378 84.6029C174.148 84.6029 173.939 84.6583 173.751 84.7691C173.564 84.8798 173.385 85.063 173.215 85.3186V90.4053H171.477ZM178.947 90.5203C178.393 90.5203 177.942 90.4181 177.592 90.2136C177.243 90.0006 176.983 89.6938 176.813 89.2934C176.651 88.8844 176.57 88.3945 176.57 87.8236V85.5998C176.57 85.0119 176.651 84.5177 176.813 84.1173C176.983 83.7168 177.243 83.4144 177.592 83.2099C177.95 83.0054 178.402 82.9031 178.947 82.9031C179.535 82.9031 179.991 83.0139 180.315 83.2354C180.647 83.457 180.881 83.7807 181.018 84.2067C181.162 84.6242 181.235 85.1355 181.235 85.7404V86.7884H178.295V88.2454C178.295 88.4839 178.317 88.6799 178.359 88.8333C178.41 88.9866 178.487 89.0974 178.589 89.1656C178.692 89.2337 178.815 89.2678 178.96 89.2678C179.113 89.2678 179.237 89.2337 179.331 89.1656C179.424 89.0889 179.492 88.9824 179.535 88.8461C179.578 88.7012 179.599 88.5223 179.599 88.3093V87.6958H181.222V88.1943C181.222 88.944 181.035 89.5192 180.66 89.9196C180.285 90.3201 179.714 90.5203 178.947 90.5203ZM178.295 85.9321H179.599V85.2292C179.599 84.9736 179.578 84.7691 179.535 84.6157C179.492 84.4538 179.424 84.3388 179.331 84.2706C179.237 84.194 179.105 84.1556 178.934 84.1556C178.781 84.1556 178.658 84.194 178.564 84.2706C178.47 84.3473 178.402 84.4751 178.359 84.6541C178.317 84.833 178.295 85.0886 178.295 85.4209V85.9321ZM187.171 90.4053V80.0531H190.213C190.835 80.0531 191.337 80.1681 191.721 80.3982C192.113 80.6282 192.398 80.9648 192.577 81.4078C192.764 81.8424 192.858 82.3706 192.858 82.9926C192.858 83.6657 192.743 84.211 192.513 84.6285C192.283 85.0375 191.959 85.3357 191.542 85.5231C191.133 85.7106 190.647 85.8043 190.085 85.8043H189.062V90.4053H187.171ZM189.062 84.4751H189.778C190.119 84.4751 190.383 84.4283 190.57 84.3345C190.766 84.2323 190.898 84.0747 190.967 83.8617C191.043 83.6401 191.082 83.3462 191.082 82.9798C191.082 82.6049 191.052 82.3025 190.992 82.0724C190.941 81.8338 190.822 81.6592 190.634 81.5484C190.455 81.4376 190.17 81.3823 189.778 81.3823H189.062V84.4751ZM195.894 90.5203C195.562 90.5203 195.276 90.4351 195.038 90.2647C194.799 90.0858 194.616 89.8642 194.488 89.6001C194.36 89.3275 194.296 89.0463 194.296 88.7566C194.296 88.2965 194.382 87.9088 194.552 87.5936C194.722 87.2783 194.948 87.0142 195.229 86.8012C195.51 86.5882 195.83 86.405 196.188 86.2516C196.546 86.0897 196.908 85.9449 197.274 85.8171V85.1781C197.274 84.9651 197.257 84.7861 197.223 84.6413C197.198 84.4964 197.142 84.3857 197.057 84.309C196.98 84.2323 196.857 84.194 196.686 84.194C196.541 84.194 196.422 84.228 196.328 84.2962C196.243 84.3644 196.179 84.4624 196.137 84.5902C196.103 84.7094 196.081 84.85 196.073 85.0119L196.047 85.4592L194.399 85.3953C194.424 84.5433 194.633 83.9171 195.025 83.5166C195.425 83.1076 196.03 82.9031 196.84 82.9031C197.581 82.9031 198.118 83.1076 198.45 83.5166C198.791 83.9256 198.961 84.4794 198.961 85.1781V88.5904C198.961 88.8631 198.965 89.1102 198.974 89.3317C198.991 89.5532 199.008 89.7535 199.025 89.9324C199.051 90.1113 199.072 90.2689 199.089 90.4053H197.53C197.504 90.2349 197.47 90.0432 197.428 89.8302C197.393 89.6086 197.368 89.4467 197.351 89.3445C197.266 89.6427 197.104 89.9154 196.865 90.1624C196.627 90.401 196.303 90.5203 195.894 90.5203ZM196.533 89.2295C196.644 89.2295 196.746 89.2039 196.84 89.1528C196.942 89.0931 197.031 89.025 197.108 88.9483C197.185 88.8716 197.24 88.8035 197.274 88.7438V86.6862C197.087 86.7969 196.908 86.9077 196.737 87.0184C196.576 87.1292 196.431 87.2528 196.303 87.3891C196.184 87.5169 196.09 87.6575 196.022 87.8108C195.962 87.9642 195.932 88.1431 195.932 88.3476C195.932 88.6203 195.983 88.8375 196.086 88.9994C196.196 89.1528 196.345 89.2295 196.533 89.2295ZM203.232 90.5203C202.661 90.5203 202.201 90.4138 201.851 90.2008C201.511 89.9793 201.259 89.6683 201.097 89.2678C200.944 88.8588 200.867 88.3774 200.867 87.8236V85.5998C200.867 85.029 200.944 84.5433 201.097 84.1428C201.259 83.7424 201.515 83.4357 201.864 83.2226C202.214 83.0096 202.669 82.9031 203.232 82.9031C203.76 82.9031 204.19 82.9883 204.523 83.1587C204.863 83.3206 205.111 83.572 205.264 83.9128C205.417 84.2451 205.494 84.6668 205.494 85.1781V85.7915H203.858V85.1397C203.858 84.8841 203.837 84.6839 203.794 84.539C203.76 84.3857 203.696 84.2792 203.602 84.2195C203.509 84.1514 203.385 84.1173 203.232 84.1173C203.078 84.1173 202.955 84.1599 202.861 84.2451C202.767 84.3218 202.699 84.4496 202.657 84.6285C202.623 84.8074 202.606 85.0545 202.606 85.3698V88.0792C202.606 88.5564 202.657 88.8801 202.759 89.0505C202.861 89.2124 203.023 89.2934 203.245 89.2934C203.415 89.2934 203.543 89.255 203.628 89.1783C203.722 89.1017 203.781 88.9909 203.807 88.8461C203.841 88.6927 203.858 88.5095 203.858 88.2965V87.5041H205.494V88.207C205.494 88.7012 205.413 89.123 205.251 89.4723C205.098 89.8216 204.851 90.0858 204.51 90.2647C204.178 90.4351 203.752 90.5203 203.232 90.5203ZM207.416 90.4053V80.0531H209.155V85.996L211.059 83.0182H212.95L211.097 85.9832L212.912 90.4053H211.084L209.743 86.7628L209.155 87.5808V90.4053H207.416ZM215.83 90.5203C215.498 90.5203 215.212 90.4351 214.974 90.2647C214.735 90.0858 214.552 89.8642 214.424 89.6001C214.296 89.3275 214.232 89.0463 214.232 88.7566C214.232 88.2965 214.318 87.9088 214.488 87.5936C214.658 87.2783 214.884 87.0142 215.165 86.8012C215.447 86.5882 215.766 86.405 216.124 86.2516C216.482 86.0897 216.844 85.9449 217.21 85.8171V85.1781C217.21 84.9651 217.193 84.7861 217.159 84.6413C217.134 84.4964 217.078 84.3857 216.993 84.309C216.916 84.2323 216.793 84.194 216.622 84.194C216.477 84.194 216.358 84.228 216.264 84.2962C216.179 84.3644 216.115 84.4624 216.073 84.5902C216.039 84.7094 216.017 84.85 216.009 85.0119L215.983 85.4592L214.335 85.3953C214.36 84.5433 214.569 83.9171 214.961 83.5166C215.361 83.1076 215.966 82.9031 216.776 82.9031C217.517 82.9031 218.054 83.1076 218.386 83.5166C218.727 83.9256 218.897 84.4794 218.897 85.1781V88.5904C218.897 88.8631 218.902 89.1102 218.91 89.3317C218.927 89.5532 218.944 89.7535 218.961 89.9324C218.987 90.1113 219.008 90.2689 219.025 90.4053H217.466C217.44 90.2349 217.406 90.0432 217.364 89.8302C217.33 89.6086 217.304 89.4467 217.287 89.3445C217.202 89.6427 217.04 89.9154 216.801 90.1624C216.563 90.401 216.239 90.5203 215.83 90.5203ZM216.469 89.2295C216.58 89.2295 216.682 89.2039 216.776 89.1528C216.878 89.0931 216.967 89.025 217.044 88.9483C217.121 88.8716 217.176 88.8035 217.21 88.7438V86.6862C217.023 86.7969 216.844 86.9077 216.673 87.0184C216.512 87.1292 216.367 87.2528 216.239 87.3891C216.12 87.5169 216.026 87.6575 215.958 87.8108C215.898 87.9642 215.868 88.1431 215.868 88.3476C215.868 88.6203 215.919 88.8375 216.022 88.9994C216.132 89.1528 216.282 89.2295 216.469 89.2295ZM223.117 92.8336C222.614 92.8336 222.171 92.7824 221.788 92.6802C221.404 92.578 221.106 92.4203 220.893 92.2073C220.68 91.9943 220.573 91.7174 220.573 91.3766C220.573 91.1465 220.62 90.9378 220.714 90.7503C220.816 90.5714 220.953 90.4138 221.123 90.2775C221.293 90.1411 221.477 90.0261 221.673 89.9324C221.391 89.8557 221.174 89.7322 221.021 89.5618C220.876 89.3914 220.803 89.1869 220.803 88.9483C220.803 88.6586 220.876 88.4115 221.021 88.207C221.166 88.0025 221.366 87.7853 221.621 87.5552C221.357 87.3422 221.157 87.0781 221.021 86.7628C220.893 86.4391 220.829 86.0173 220.829 85.4976C220.829 84.9352 220.918 84.4624 221.097 84.0789C221.285 83.687 221.553 83.3931 221.903 83.1971C222.26 83.0011 222.695 82.9031 223.206 82.9031C223.598 82.9031 223.926 82.9628 224.19 83.0821C224.454 83.1928 224.672 83.3632 224.842 83.5933C224.91 83.491 225.03 83.3632 225.2 83.2099C225.37 83.0565 225.566 82.9287 225.788 82.8265L226.018 82.7242L226.44 83.6572C226.346 83.6827 226.218 83.7253 226.056 83.785C225.903 83.8446 225.749 83.9085 225.596 83.9767C225.443 84.0449 225.323 84.1045 225.238 84.1556C225.315 84.326 225.379 84.539 225.43 84.7946C225.481 85.0503 225.507 85.2931 225.507 85.5231C225.507 86.0429 225.426 86.4944 225.264 86.8779C225.102 87.2613 224.851 87.5595 224.51 87.7725C224.177 87.977 223.743 88.0792 223.206 88.0792C223.027 88.0792 222.853 88.0664 222.682 88.0409C222.512 88.0068 222.354 87.9685 222.209 87.9259C222.158 88.0025 222.107 88.0835 222.056 88.1687C222.013 88.2539 221.992 88.3434 221.992 88.4371C221.992 88.5308 222.043 88.6075 222.145 88.6671C222.248 88.7268 222.418 88.7694 222.657 88.7949L224.216 88.9483C224.821 89.0079 225.268 89.1996 225.558 89.5234C225.847 89.8387 225.992 90.2689 225.992 90.8142C225.992 91.2573 225.89 91.6279 225.686 91.9261C225.49 92.2244 225.179 92.4501 224.753 92.6035C224.335 92.7569 223.79 92.8336 223.117 92.8336ZM223.308 91.53C223.786 91.53 224.143 91.4831 224.382 91.3894C224.621 91.2956 224.74 91.1252 224.74 90.8782C224.74 90.7418 224.71 90.6311 224.65 90.5459C224.591 90.4607 224.484 90.3925 224.331 90.3414C224.177 90.2817 223.96 90.2391 223.679 90.2136L222.414 90.0985C222.32 90.1752 222.235 90.2562 222.158 90.3414C222.09 90.4181 222.035 90.5033 221.992 90.597C221.949 90.6907 221.928 90.7887 221.928 90.8909C221.928 91.1039 222.03 91.2616 222.235 91.3638C222.439 91.4746 222.797 91.53 223.308 91.53ZM223.206 86.9673C223.36 86.9673 223.483 86.9418 223.577 86.8906C223.671 86.831 223.743 86.7415 223.794 86.6223C223.845 86.4944 223.879 86.3368 223.896 86.1494C223.913 85.9619 223.922 85.7447 223.922 85.4976C223.922 85.2505 223.913 85.0332 223.896 84.8458C223.879 84.6583 223.845 84.5007 223.794 84.3729C223.751 84.2451 223.683 84.1514 223.59 84.0917C223.496 84.0321 223.368 84.0023 223.206 84.0023C223.053 84.0023 222.925 84.0321 222.823 84.0917C222.729 84.1514 222.657 84.2451 222.605 84.3729C222.563 84.4922 222.529 84.6455 222.503 84.833C222.486 85.0204 222.478 85.242 222.478 85.4976C222.478 85.7361 222.486 85.9491 222.503 86.1366C222.52 86.3155 222.554 86.4689 222.605 86.5967C222.657 86.716 222.729 86.8097 222.823 86.8779C222.925 86.9375 223.053 86.9673 223.206 86.9673ZM229.913 90.5203C229.359 90.5203 228.908 90.4181 228.559 90.2136C228.209 90.0006 227.949 89.6938 227.779 89.2934C227.617 88.8844 227.536 88.3945 227.536 87.8236V85.5998C227.536 85.0119 227.617 84.5177 227.779 84.1173C227.949 83.7168 228.209 83.4144 228.559 83.2099C228.916 83.0054 229.368 82.9031 229.913 82.9031C230.501 82.9031 230.957 83.0139 231.281 83.2354C231.613 83.457 231.847 83.7807 231.984 84.2067C232.129 84.6242 232.201 85.1355 232.201 85.7404V86.7884H229.262V88.2454C229.262 88.4839 229.283 88.6799 229.325 88.8333C229.377 88.9866 229.453 89.0974 229.555 89.1656C229.658 89.2337 229.781 89.2678 229.926 89.2678C230.079 89.2678 230.203 89.2337 230.297 89.1656C230.39 89.0889 230.459 88.9824 230.501 88.8461C230.544 88.7012 230.565 88.5223 230.565 88.3093V87.6958H232.188V88.1943C232.188 88.944 232.001 89.5192 231.626 89.9196C231.251 90.3201 230.68 90.5203 229.913 90.5203ZM229.262 85.9321H230.565V85.2292C230.565 84.9736 230.544 84.7691 230.501 84.6157C230.459 84.4538 230.39 84.3388 230.297 84.2706C230.203 84.194 230.071 84.1556 229.901 84.1556C229.747 84.1556 229.624 84.194 229.53 84.2706C229.436 84.3473 229.368 84.4751 229.325 84.6541C229.283 84.833 229.262 85.0886 229.262 85.4209V85.9321ZM236.154 90.5203C235.532 90.5203 235.021 90.3542 234.62 90.0219C234.22 89.6896 233.934 89.2039 233.764 88.5649L235.055 88.0664C235.157 88.4669 235.293 88.7736 235.464 88.9866C235.634 89.1996 235.856 89.3062 236.128 89.3062C236.333 89.3062 236.486 89.255 236.588 89.1528C236.691 89.0505 236.742 88.91 236.742 88.731C236.742 88.5265 236.678 88.3434 236.55 88.1815C236.431 88.0111 236.222 87.8023 235.924 87.5552L235.029 86.8012C234.705 86.52 234.441 86.2346 234.237 85.9449C234.041 85.6467 233.943 85.276 233.943 84.833C233.943 84.4325 234.032 84.0917 234.211 83.8106C234.399 83.5209 234.65 83.2993 234.965 83.146C235.289 82.9841 235.647 82.9031 236.039 82.9031C236.635 82.9031 237.112 83.0821 237.47 83.4399C237.837 83.7893 238.071 84.2493 238.173 84.8202L237.036 85.3059C236.993 85.1014 236.929 84.9139 236.844 84.7435C236.767 84.5646 236.665 84.4198 236.537 84.309C236.409 84.1982 236.26 84.1428 236.09 84.1428C235.911 84.1428 235.766 84.1982 235.655 84.309C235.553 84.4198 235.502 84.5603 235.502 84.7307C235.502 84.8756 235.562 85.0247 235.681 85.1781C235.809 85.3314 235.988 85.5061 236.218 85.7021L237.125 86.52C237.321 86.6904 237.509 86.8736 237.688 87.0696C237.866 87.2655 238.016 87.4871 238.135 87.7342C238.254 87.9727 238.314 88.2496 238.314 88.5649C238.314 88.9909 238.216 89.3488 238.02 89.6384C237.832 89.9281 237.573 90.1497 237.24 90.303C236.916 90.4479 236.554 90.5203 236.154 90.5203Z" fill="white"/>
<path d="M97.1605 107.492L21.3422 107.622C13.5199 107.622 7.171 101.317 7.171 93.4943L7.04099 17.741C7.04099 9.94032 13.3465 3.59144 21.1689 3.59144L96.9872 3.46143C104.81 3.46143 111.158 9.76698 111.158 17.5893L111.288 93.3426C111.288 101.165 104.983 107.492 97.1605 107.514" fill="#E73D62"/>
<path d="M87.6479 55.6181C86.3044 55.6181 84.961 55.6181 83.6175 55.5964C81.3206 55.5747 79.0238 55.5097 76.7486 55.4664H76.0768C74.9067 55.423 73.6716 55.4014 72.5015 55.2714C69.988 55.0113 68.1895 54.0363 66.9761 52.3028C66.6077 51.7611 66.3477 51.1543 66.131 50.3526C66.131 50.3093 66.131 50.2443 66.131 50.1792V29.9625C66.131 29.6375 66.1743 29.5941 66.4993 29.5941H72.2849C72.6532 29.5941 72.6749 29.6375 72.6749 29.9842V42.8769C72.6749 44.0037 72.6749 45.1305 72.6749 46.2356V47.0806C72.6749 47.6007 72.8699 47.774 73.3899 47.774H95.1668C95.2969 47.774 95.5569 47.774 95.7302 47.579C95.9036 47.384 95.8602 47.124 95.8602 47.0373C95.8602 47.0156 95.8602 46.929 95.8602 46.8856C95.8602 46.7123 95.9036 46.4306 95.7086 46.2139C95.6002 46.0839 95.4269 46.0189 95.2102 46.0189C95.1452 46.0189 95.0585 46.0189 94.9718 46.0189H86.8895H74.43V44.5021C74.365 41.7285 74.3434 38.8466 74.4734 36.0297C74.5817 33.7761 75.6435 32.0427 77.6153 30.8726C78.6121 30.2658 79.7605 29.8758 81.1256 29.6808C81.884 29.5725 82.6424 29.5508 83.3141 29.5508H101.277C101.429 29.5508 101.472 29.5508 101.516 29.5508C101.711 29.5941 101.711 29.7025 101.711 29.7891C101.711 32.0643 101.711 34.3612 101.711 36.6364C101.711 36.8531 101.537 36.8748 101.451 36.8964C101.451 36.8964 86.8895 36.8964 82.4041 36.8964C82.2741 36.8964 82.0357 36.8964 81.8623 37.0914C81.689 37.2865 81.7107 37.5465 81.7323 37.6332C81.7323 37.6765 81.7323 37.7415 81.7323 37.8065C81.7323 37.9799 81.689 38.2399 81.8623 38.4349C81.9924 38.5649 82.144 38.6516 82.3824 38.6516C82.4474 38.6516 82.5341 38.6516 82.6208 38.6516H85.8494H89.7714C91.8516 38.6516 93.9317 38.6516 96.0119 38.6516C96.7703 38.6516 97.442 38.7816 98.1138 39.0199C100.866 40.0384 102.642 41.9019 103.379 44.5238C104.593 48.7925 102.339 53.2345 98.1354 54.8597C97.312 55.1847 96.402 55.358 95.2535 55.423C93.0433 55.553 90.7031 55.6181 87.6695 55.6181H87.6479Z" fill="white"/>
<path d="M23.0974 55.5092C21.7973 55.5092 20.5405 55.2491 19.3487 54.7074C17.6802 53.949 16.4018 52.7139 15.5351 51.0238C15.2967 50.5687 15.2317 50.0487 15.1234 49.507C14.625 46.4517 14.6466 43.3748 14.6466 40.6662C14.6466 39.3878 14.69 38.131 14.7333 36.8525C14.755 35.7908 14.7983 34.729 14.8417 33.6889L14.9717 30.1569C14.9717 29.7236 15.0367 29.6802 15.4701 29.6152C15.5784 29.6152 15.6867 29.6152 15.7951 29.6152H22.1656C22.5557 29.6152 22.6423 29.6802 22.6423 30.0919V35.4007V47.3618C22.6423 47.4918 22.6423 47.6218 22.729 47.7518C22.794 47.8385 22.924 47.9902 23.2057 47.9902C23.2057 47.9902 23.6391 47.9902 23.7041 47.9902C23.7691 47.9902 24.0075 47.9902 24.1808 47.8385C24.4408 47.6001 24.3975 47.2751 24.3758 47.0368C24.3758 46.9718 24.3758 46.9284 24.3758 46.8634C24.3758 45.6933 24.3758 44.5449 24.3758 43.3748C24.3758 40.8395 24.3542 38.196 24.4192 35.6174C24.4842 33.3639 25.871 30.5903 28.7962 29.8969C29.2296 29.7886 29.663 29.7452 30.1397 29.7452C30.1397 29.7452 43.0108 29.6586 47.0411 29.6152H47.6479C48.4713 29.6152 49.143 29.6586 49.793 29.9186C52.2199 30.872 53.8017 32.6272 54.4518 35.1624C54.5168 35.3791 54.5168 35.6391 54.5168 35.9208C54.5168 35.9208 54.5168 43.5264 54.5168 46.1483H33.3466C33.4116 45.4983 33.4333 44.8916 33.455 44.3065C33.52 41.9663 33.5633 40.0378 33.5416 38.261H46.3911C46.4994 38.261 46.7594 38.261 46.9111 38.066C47.0845 37.871 47.0411 37.6326 47.0411 37.5459C47.0411 37.4159 47.0411 37.2859 47.0411 37.1342V36.9609L46.9111 36.7009C46.7594 36.5275 46.5428 36.5275 46.4561 36.5275H32.4149C32.0465 36.5275 31.8298 36.7442 31.8298 37.1126V41.4029C31.7865 43.1581 31.7215 44.8916 31.5915 46.5817C31.4614 48.1852 31.3098 49.5286 30.9414 50.8504C30.638 51.9338 29.9663 52.8656 28.8829 53.689C27.7128 54.5774 26.3477 55.1408 24.7225 55.4008C24.1591 55.4875 23.6174 55.5308 23.0757 55.5308L23.0974 55.5092Z" fill="white"/>
<path d="M51.4397 55.7908C49.7279 55.7908 47.9728 55.7475 46.2393 55.6608H45.8276C44.7008 55.5958 43.574 55.5308 42.4473 55.5092C40.6488 55.4658 39.3053 55.2275 38.0919 54.7508C36.4884 54.1224 35.2967 52.9306 34.4949 51.1321C34.0615 50.157 33.7799 49.0953 33.6498 47.8602V47.8168H55.9468C56.0551 47.8168 56.2501 47.8168 56.4235 47.6651C56.5752 47.5135 56.5752 47.3401 56.5752 47.2101C56.5318 43.7865 56.5318 40.3628 56.5318 36.9392V30.1136C56.4885 29.8969 56.5318 29.7669 56.5968 29.7019C56.6618 29.6369 56.7919 29.6152 57.0085 29.6152H63.1841C63.6391 29.6152 63.7691 29.7452 63.7691 30.2003V34.989C63.7691 39.0194 63.7691 43.0497 63.7691 47.0801C63.7691 49.3986 63.1841 51.4355 62.079 53.1473C61.3206 54.3174 60.3888 54.9891 59.2187 55.2275C58.3953 55.4008 57.5286 55.4875 56.7269 55.5742C55.1884 55.7258 53.5199 55.8125 51.5697 55.8125H51.4831L51.4397 55.7908Z" fill="white"/>
<path d="M92.8267 75.3145L91.7216 80.3849H94.4951L93.4334 75.3145H92.8267Z" fill="white"/>
<path d="M57.1386 75.3359H55.4484V78.6729H57.2253C57.572 78.6729 57.8537 78.6079 58.0487 78.4562C58.2437 78.3045 58.417 78.1095 58.5037 77.8712C58.5904 77.6111 58.6554 77.3294 58.6554 76.9828C58.6554 76.441 58.5254 76.0293 58.287 75.7476C58.0487 75.466 57.6586 75.3359 57.1386 75.3359Z" fill="white"/>
<path d="M40.5192 75.3145L39.4141 80.3849H42.1876L41.1259 75.3145H40.5192Z" fill="white"/>
<path d="M95.8823 67.0151H22.4259C17.9188 67.0151 14.2568 70.6555 14.2568 75.1625V81.9231C14.2568 86.4302 17.9188 90.0705 22.4259 90.0705H95.8823C100.389 90.0705 104.051 86.4302 104.051 81.9231V75.1625C104.051 70.6555 100.389 67.0151 95.8823 67.0151ZM26.9546 84.8484L24.8744 80.363L23.6826 80.4063V84.8484H20.519V72.8006H23.6826V77.5244H24.8527L26.8029 72.8006H30.0315L27.5613 78.7162L30.2265 84.8484H26.9546ZM43.0977 84.8484L42.5559 82.8548H38.959L38.4606 84.8484H35.3403L38.2439 72.8006H43.3577L46.2829 84.8484H43.0977ZM61.7976 84.8484H58.5257L57.3122 81.208H55.4271V84.8484H52.2635V72.8006H57.1389C58.2006 72.8006 59.0674 72.9306 59.7824 73.169C60.4758 73.4074 61.0176 73.8407 61.3643 74.4258C61.7109 75.0325 61.8843 75.8559 61.8843 76.9393C61.8843 77.8061 61.7543 78.5211 61.4726 79.1062C61.1909 79.6912 60.7792 80.1463 60.2375 80.4496L61.8193 84.8267L61.7976 84.8484ZM81.6677 84.8484H78.5041V77.0477H78.2657L76.3589 84.61H73.5637L71.6785 77.0477H71.4401V84.8484H68.2765V72.8006H73.1519L74.9721 79.4095L76.6623 72.8006H81.6677V84.8484ZM95.4055 84.8484L94.8638 82.8548H91.2669L90.7685 84.8484H87.6482L90.5518 72.8006H95.6656L98.5908 84.8484H95.4055Z" fill="white"/>
<defs>
<filter id="filter0_d_81_320" x="113.172" y="0.909668" width="144.91" height="116.336" filterUnits="userSpaceOnUse" color-interpolation-filters="sRGB">
<feFlood flood-opacity="0" result="BackgroundImageFix"/>
<feColorMatrix in="SourceAlpha" type="matrix" values="0 0 0 0 0 0 0 0 0 0 0 0 0 0 0 0 0 0 127 0" result="hardAlpha"/>
<feOffset dy="4.08197"/>
<feGaussianBlur stdDeviation="2.04098"/>
<feComposite in2="hardAlpha" operator="out"/>
<feColorMatrix type="matrix" values="0 0 0 0 0 0 0 0 0 0 0 0 0 0 0 0 0 0 0.25 0"/>
<feBlend mode="normal" in2="BackgroundImageFix" result="effect1_dropShadow_81_320"/>
<feBlend mode="normal" in="SourceGraphic" in2="effect1_dropShadow_81_320" result="shape"/>
</filter>
<filter id="filter1_d_81_320" x="0.918033" y="0.909668" width="116.775" height="116.777" filterUnits="userSpaceOnUse" color-interpolation-filters="sRGB">
<feFlood flood-opacity="0" result="BackgroundImageFix"/>
<feColorMatrix in="SourceAlpha" type="matrix" values="0 0 0 0 0 0 0 0 0 0 0 0 0 0 0 0 0 0 127 0" result="hardAlpha"/>
<feOffset dy="4.08197"/>
<feGaussianBlur stdDeviation="2.04098"/>
<feComposite in2="hardAlpha" operator="out"/>
<feColorMatrix type="matrix" values="0 0 0 0 0 0 0 0 0 0 0 0 0 0 0 0 0 0 0.25 0"/>
<feBlend mode="normal" in2="BackgroundImageFix" result="effect1_dropShadow_81_320"/>
<feBlend mode="normal" in="SourceGraphic" in2="effect1_dropShadow_81_320" result="shape"/>
</filter>
</defs>
</svg>
