<svg width="347" height="119" viewBox="0 0 347 119" fill="none" xmlns="http://www.w3.org/2000/svg">
<g filter="url(#filter0_d_81_321)">
<path d="M20.0644 1.10964H100.767C102.746 1.10964 104.705 1.49161 106.533 2.23373C108.361 2.97586 110.022 4.06361 111.421 5.43488C112.82 6.80615 113.93 8.43408 114.687 10.2257C115.444 12.0174 115.834 13.9377 115.834 15.8769V94.9737C115.834 98.8902 114.246 102.646 111.421 105.416C108.595 108.185 104.763 109.741 100.767 109.741H20.0644C16.0691 109.741 12.2374 108.185 9.41226 105.416C6.58714 102.647 5 98.8919 5 94.9759V15.8747C5 11.9582 6.58737 8.20206 9.41292 5.43266C12.2385 2.66325 16.0707 1.10742 20.0667 1.10742L20.0644 1.10964Z" fill="white"/>
<path d="M21.058 2.44531C17.1603 2.44472 13.422 3.96159 10.6653 6.66227C7.90861 9.36296 6.35926 13.0263 6.35806 16.8465V73.5084C9.98844 74.8048 13.9917 74.6615 17.5159 73.1089C21.04 71.5562 23.8069 68.7169 25.2276 65.1951L30.3705 51.3486L48.5338 2.44975L21.058 2.44531ZM21.9091 41.8994C20.0984 41.899 18.3285 41.3722 16.8233 40.3858C15.3181 39.3993 14.1451 37.9975 13.4528 36.3577C12.7605 34.7178 12.58 32.9135 12.934 31.173C13.288 29.4326 14.1607 27.8341 15.4417 26.5798C16.7227 25.3255 18.3544 24.4717 20.1305 24.1265C21.9066 23.7812 23.7473 23.96 25.4197 24.6401C27.0922 25.3203 28.5212 26.4713 29.5262 27.9476C30.5311 29.4239 31.0668 31.1592 31.0655 32.9339C31.0637 35.3127 30.0981 37.5934 28.3811 39.2747C26.6641 40.9559 24.3362 41.9 21.9091 41.8994V41.8994Z" fill="#E73C61"/>
<path d="M99.7731 2.44531H78.1488V2.68271L56.667 60.5271L51.5105 74.4225H51.4901C49.7302 78.948 46.5866 82.83 42.4894 85.5372C38.3922 88.2445 33.5416 89.6447 28.6013 89.5463C23.6611 89.448 18.8725 87.8558 14.8908 84.9877C10.9092 82.1197 7.929 78.1158 6.35806 73.5239V94.0198C6.35926 97.84 7.9086 101.503 10.6653 104.204C13.422 106.905 17.1603 108.422 21.058 108.421H42.6597C42.6597 108.339 42.6597 108.266 42.6597 108.184L64.1392 50.3391L69.3003 36.4549H69.3206C71.0819 31.931 74.226 28.0509 78.3229 25.3453C82.4198 22.6396 87.2695 21.2405 92.2086 21.3393C97.1478 21.4382 101.935 23.0301 105.916 25.8974C109.897 28.7647 112.877 32.7673 114.448 37.3579C110.82 36.0605 106.818 36.2017 103.294 37.7513C99.7705 39.3009 97.0024 42.1366 95.5786 45.6556L90.4402 59.5021L72.286 108.392H99.7731C103.671 108.393 107.409 106.876 110.166 104.175C112.923 101.474 114.472 97.8111 114.473 93.9909V16.8465C114.472 13.0263 112.923 9.36296 110.166 6.66227C107.409 3.96159 103.671 2.44472 99.7731 2.44531V2.44531ZM99.7392 86.8957C97.9285 86.8966 96.1582 86.3711 94.6522 85.3858C93.1462 84.4004 91.9722 82.9995 91.2787 81.3601C90.5851 79.7207 90.4032 77.9166 90.7559 76.1758C91.1086 74.4351 91.9801 72.836 93.2601 71.5808C94.5402 70.3256 96.1713 69.4706 97.9471 69.124C99.7229 68.7775 101.564 68.9549 103.237 69.6339C104.91 70.3128 106.34 71.4628 107.346 72.9384C108.352 74.4139 108.889 76.1488 108.889 77.9235C108.888 80.3021 107.924 82.5832 106.208 84.2656C104.493 85.9479 102.166 86.8939 99.7392 86.8957V86.8957Z" fill="#E73C61"/>
<path d="M326.895 0.893555H135.559C127.217 0.893555 120.454 7.53949 120.454 15.7377V95.2624C120.454 103.461 127.217 110.107 135.559 110.107H326.895C335.237 110.107 342 103.461 342 95.2624V15.7377C342 7.53949 335.237 0.893555 326.895 0.893555Z" fill="white"/>
</g>
<path d="M134.36 51.8239V47.8216C135.181 47.8216 135.861 47.7702 136.4 47.6676C136.939 47.565 137.349 47.3854 137.631 47.1288C137.939 46.8466 138.157 46.449 138.285 45.9359C138.414 45.3971 138.478 44.7172 138.478 43.8962V19.8823H144.135V44.1271C144.135 45.8717 143.93 47.3213 143.519 48.4758C143.109 49.6046 142.39 50.4513 141.364 51.0157C140.364 51.5545 138.94 51.8239 137.093 51.8239H134.36ZM152.839 51.4006C151.838 51.4006 150.979 51.144 150.261 50.6309C149.542 50.0921 148.991 49.4251 148.606 48.6297C148.221 47.8087 148.029 46.9621 148.029 46.0898C148.029 44.7044 148.285 43.537 148.798 42.5878C149.311 41.6385 149.991 40.8432 150.838 40.2018C151.684 39.5604 152.647 39.0088 153.724 38.547C154.802 38.0595 155.892 37.6233 156.995 37.2385V35.3143C156.995 34.6729 156.944 34.1341 156.841 33.698C156.764 33.2618 156.598 32.9283 156.341 32.6974C156.11 32.4665 155.738 32.3511 155.225 32.3511C154.789 32.3511 154.43 32.4537 154.147 32.6589C153.891 32.8642 153.698 33.1592 153.57 33.5441C153.468 33.9032 153.403 34.3266 153.378 34.814L153.301 36.161L148.336 35.9685C148.413 33.403 149.042 31.5172 150.222 30.3114C151.428 29.0799 153.249 28.4642 155.687 28.4642C157.919 28.4642 159.535 29.0799 160.536 30.3114C161.562 31.5429 162.075 33.2105 162.075 35.3143V45.5895C162.075 46.4105 162.088 47.1545 162.114 47.8216C162.165 48.4886 162.216 49.0915 162.268 49.6303C162.345 50.1691 162.409 50.6437 162.46 51.0542H157.765C157.688 50.5411 157.585 49.9638 157.457 49.3224C157.354 48.6554 157.277 48.1679 157.226 47.86C156.97 48.758 156.482 49.579 155.764 50.323C155.045 51.0414 154.07 51.4006 152.839 51.4006ZM154.763 47.5137C155.097 47.5137 155.405 47.4367 155.687 47.2828C155.995 47.1032 156.264 46.8979 156.495 46.667C156.726 46.4361 156.893 46.2309 156.995 46.0513V39.8554C156.431 40.1889 155.892 40.5225 155.379 40.856C154.891 41.1895 154.455 41.5615 154.07 41.972C153.711 42.3569 153.429 42.7802 153.224 43.242C153.044 43.7038 152.954 44.2426 152.954 44.8583C152.954 45.6793 153.108 46.3335 153.416 46.821C153.75 47.2828 154.199 47.5137 154.763 47.5137ZM170.932 51.4006C169.162 51.4006 167.815 50.772 166.891 49.5148C165.993 48.2577 165.544 46.2437 165.544 43.4729V36.6613C165.544 35.1219 165.711 33.7365 166.045 32.505C166.404 31.2735 166.968 30.2986 167.738 29.5802C168.508 28.8362 169.547 28.4642 170.855 28.4642C171.65 28.4642 172.382 28.631 173.049 28.9645C173.741 29.2724 174.37 29.6829 174.934 30.196V19.8823H180.168V51.0542H174.934V49.4764C174.344 50.0664 173.716 50.5411 173.049 50.9003C172.382 51.2338 171.676 51.4006 170.932 51.4006ZM172.856 47.7831C173.139 47.7831 173.459 47.7189 173.818 47.5907C174.178 47.4624 174.55 47.2828 174.934 47.0519V32.7744C174.627 32.5691 174.293 32.4024 173.934 32.2741C173.575 32.1202 173.203 32.0432 172.818 32.0432C172.074 32.0432 171.548 32.3895 171.24 33.0823C170.958 33.7493 170.817 34.5703 170.817 35.5452V43.8577C170.817 44.6017 170.868 45.2688 170.971 45.8589C171.073 46.449 171.266 46.9236 171.548 47.2828C171.856 47.6163 172.292 47.7831 172.856 47.7831ZM190.853 51.4006C189.237 51.4006 187.903 51.1055 186.851 50.5154C185.799 49.8997 185.004 49.0146 184.465 47.86C183.952 46.7055 183.696 45.3073 183.696 43.6653V36.1994C183.696 34.5575 183.952 33.1592 184.465 32.0047C185.004 30.8502 185.799 29.9779 186.851 29.3878C187.903 28.7721 189.237 28.4642 190.853 28.4642C192.47 28.4642 193.804 28.7721 194.856 29.3878C195.933 29.9779 196.729 30.8502 197.242 32.0047C197.781 33.1592 198.05 34.5575 198.05 36.1994V43.6653C198.05 45.3073 197.781 46.7055 197.242 47.86C196.729 49.0146 195.933 49.8997 194.856 50.5154C193.804 51.1055 192.47 51.4006 190.853 51.4006ZM190.892 47.7831C191.482 47.7831 191.918 47.6163 192.2 47.2828C192.483 46.9493 192.662 46.5003 192.739 45.9359C192.816 45.3458 192.855 44.7044 192.855 44.0117V35.8531C192.855 35.1604 192.816 34.5318 192.739 33.9674C192.662 33.403 192.483 32.954 192.2 32.6204C191.918 32.2613 191.482 32.0817 190.892 32.0817C190.302 32.0817 189.866 32.2613 189.584 32.6204C189.301 32.954 189.109 33.403 189.006 33.9674C188.929 34.5318 188.891 35.1604 188.891 35.8531V44.0117C188.891 44.7044 188.929 45.3458 189.006 45.9359C189.109 46.5003 189.301 46.9493 189.584 47.2828C189.866 47.6163 190.302 47.7831 190.892 47.7831ZM208.367 51.4006C206.75 51.4006 205.416 51.1055 204.364 50.5154C203.312 49.8997 202.517 49.0146 201.978 47.86C201.465 46.7055 201.209 45.3073 201.209 43.6653V36.1994C201.209 34.5575 201.465 33.1592 201.978 32.0047C202.517 30.8502 203.312 29.9779 204.364 29.3878C205.416 28.7721 206.75 28.4642 208.367 28.4642C209.983 28.4642 211.317 28.7721 212.369 29.3878C213.447 29.9779 214.242 30.8502 214.755 32.0047C215.294 33.1592 215.563 34.5575 215.563 36.1994V43.6653C215.563 45.3073 215.294 46.7055 214.755 47.86C214.242 49.0146 213.447 49.8997 212.369 50.5154C211.317 51.1055 209.983 51.4006 208.367 51.4006ZM208.405 47.7831C208.995 47.7831 209.431 47.6163 209.714 47.2828C209.996 46.9493 210.175 46.5003 210.252 45.9359C210.329 45.3458 210.368 44.7044 210.368 44.0117V35.8531C210.368 35.1604 210.329 34.5318 210.252 33.9674C210.175 33.403 209.996 32.954 209.714 32.6204C209.431 32.2613 208.995 32.0817 208.405 32.0817C207.815 32.0817 207.379 32.2613 207.097 32.6204C206.814 32.954 206.622 33.403 206.519 33.9674C206.442 34.5318 206.404 35.1604 206.404 35.8531V44.0117C206.404 44.7044 206.442 45.3458 206.519 45.9359C206.622 46.5003 206.814 46.9493 207.097 47.2828C207.379 47.6163 207.815 47.7831 208.405 47.7831ZM219.299 57.0962V53.3247C220.197 53.3247 220.928 53.2734 221.493 53.1708C222.057 53.0682 222.468 52.8886 222.724 52.632C222.981 52.3755 223.109 52.0163 223.109 51.5545C223.109 51.221 223.019 50.695 222.84 49.9767C222.686 49.2583 222.506 48.4758 222.301 47.6291L217.413 28.8106H222.493L225.379 43.4729L227.881 28.8106H232.922L227.727 51.9393C227.445 53.2478 226.97 54.274 226.303 55.018C225.636 55.7621 224.802 56.288 223.802 56.5959C222.801 56.9294 221.634 57.0962 220.3 57.0962H219.299ZM242.078 51.4006C240.41 51.4006 239.05 51.0927 237.998 50.4769C236.946 49.8355 236.164 48.9119 235.651 47.7061C235.163 46.4746 234.92 44.9994 234.92 43.2805V36.5843C234.92 34.814 235.163 33.326 235.651 32.1202C236.164 30.9143 236.946 30.0035 237.998 29.3878C239.076 28.7721 240.436 28.4642 242.078 28.4642C243.848 28.4642 245.22 28.7977 246.195 29.4648C247.196 30.1318 247.901 31.1068 248.312 32.3895C248.748 33.6467 248.966 35.186 248.966 37.0076V40.1633H240.115V44.5504C240.115 45.2688 240.179 45.8589 240.307 46.3207C240.461 46.7825 240.692 47.116 241 47.3213C241.308 47.5265 241.68 47.6291 242.116 47.6291C242.578 47.6291 242.95 47.5265 243.232 47.3213C243.514 47.0904 243.72 46.7697 243.848 46.3592C243.976 45.923 244.04 45.3842 244.04 44.7429V42.8956H248.928V44.3965C248.928 46.6542 248.363 48.386 247.234 49.5918C246.106 50.7976 244.387 51.4006 242.078 51.4006ZM240.115 37.5849H244.04V35.4683C244.04 34.6986 243.976 34.0828 243.848 33.621C243.72 33.1336 243.514 32.7872 243.232 32.582C242.95 32.3511 242.552 32.2356 242.039 32.2356C241.577 32.2356 241.205 32.3511 240.923 32.582C240.641 32.8129 240.436 33.1977 240.307 33.7365C240.179 34.2753 240.115 35.0449 240.115 36.0455V37.5849ZM262.222 51.0542V19.8823H275.037V23.8077H267.918V32.8898H273.729V36.8537H267.918V51.0542H262.222ZM284.507 51.4006C282.84 51.4006 281.48 51.0927 280.428 50.4769C279.376 49.8355 278.594 48.9119 278.081 47.7061C277.593 46.4746 277.349 44.9994 277.349 43.2805V36.5843C277.349 34.814 277.593 33.326 278.081 32.1202C278.594 30.9143 279.376 30.0035 280.428 29.3878C281.506 28.7721 282.866 28.4642 284.507 28.4642C286.278 28.4642 287.65 28.7977 288.625 29.4648C289.626 30.1318 290.331 31.1068 290.742 32.3895C291.178 33.6467 291.396 35.186 291.396 37.0076V40.1633H282.545V44.5504C282.545 45.2688 282.609 45.8589 282.737 46.3207C282.891 46.7825 283.122 47.116 283.43 47.3213C283.738 47.5265 284.11 47.6291 284.546 47.6291C285.008 47.6291 285.38 47.5265 285.662 47.3213C285.944 47.0904 286.149 46.7697 286.278 46.3592C286.406 45.923 286.47 45.3842 286.47 44.7429V42.8956H291.358V44.3965C291.358 46.6542 290.793 48.386 289.664 49.5918C288.535 50.7976 286.817 51.4006 284.507 51.4006ZM282.545 37.5849H286.47V35.4683C286.47 34.6986 286.406 34.0828 286.278 33.621C286.149 33.1336 285.944 32.7872 285.662 32.582C285.38 32.3511 284.982 32.2356 284.469 32.2356C284.007 32.2356 283.635 32.3511 283.353 32.582C283.071 32.8129 282.866 33.1977 282.737 33.7365C282.609 34.2753 282.545 35.0449 282.545 36.0455V37.5849ZM294.986 51.0542V19.8823H300.22V37.7773L305.954 28.8106H311.65L306.07 37.7388L311.534 51.0542H306.031L301.99 40.0863L300.22 42.5493V51.0542H294.986ZM313.817 51.0542V28.8106H319.05V32.2356C319.82 30.9272 320.59 29.9907 321.359 29.4263C322.129 28.8362 322.976 28.5412 323.899 28.5412C324.053 28.5412 324.181 28.554 324.284 28.5796C324.412 28.5796 324.554 28.5925 324.707 28.6181V34.0444C324.4 33.9161 324.053 33.8134 323.668 33.7365C323.309 33.6339 322.937 33.5825 322.552 33.5825C321.86 33.5825 321.231 33.7493 320.667 34.0828C320.102 34.4164 319.563 34.968 319.05 35.7376V51.0542H313.817Z" fill="#555554"/>
<path d="M122.534 65.3813H339.92V93.4647C339.92 101.507 333.4 108.026 325.358 108.026H137.096C129.053 108.026 122.534 101.507 122.534 93.4647V65.3813Z" fill="#E73C61"/>
<path d="M134.77 89.7422V79.1909H136.698V83.8282L138.782 79.1909H140.619L138.6 83.9064L140.827 89.7422H138.912L137.141 84.9355L136.698 85.7431V89.7422H134.77ZM141.471 89.7422V82.213H143.243V82.9685C143.512 82.708 143.794 82.4995 144.089 82.3432C144.393 82.1782 144.719 82.0957 145.066 82.0957C145.379 82.0957 145.627 82.1739 145.809 82.3302C145.991 82.4778 146.126 82.6776 146.213 82.9294C146.3 83.1813 146.343 83.4548 146.343 83.7501V89.7422H144.571V84.1018C144.571 83.876 144.537 83.7023 144.467 83.5807C144.398 83.4592 144.263 83.3984 144.063 83.3984C143.942 83.3984 143.807 83.4331 143.66 83.5026C143.521 83.572 143.382 83.6589 143.243 83.7631V89.7422H141.471ZM149.92 89.8594C149.373 89.8594 148.922 89.7596 148.566 89.5598C148.21 89.3514 147.94 89.0518 147.758 88.661C147.584 88.2702 147.498 87.7969 147.498 87.2411V84.714C147.498 84.1582 147.584 83.6849 147.758 83.2942C147.94 82.9034 148.21 82.6081 148.566 82.4084C148.922 82.1999 149.373 82.0957 149.92 82.0957C150.468 82.0957 150.919 82.1999 151.275 82.4084C151.64 82.6081 151.909 82.9034 152.083 83.2942C152.265 83.6849 152.356 84.1582 152.356 84.714V87.2411C152.356 87.7969 152.265 88.2702 152.083 88.661C151.909 89.0518 151.64 89.3514 151.275 89.5598C150.919 89.7596 150.468 89.8594 149.92 89.8594ZM149.933 88.6349C150.133 88.6349 150.281 88.5785 150.376 88.4656C150.472 88.3527 150.533 88.2007 150.559 88.0097C150.585 87.8099 150.598 87.5928 150.598 87.3584V84.5968C150.598 84.3623 150.585 84.1495 150.559 83.9585C150.533 83.7674 150.472 83.6155 150.376 83.5026C150.281 83.381 150.133 83.3202 149.933 83.3202C149.734 83.3202 149.586 83.381 149.491 83.5026C149.395 83.6155 149.33 83.7674 149.295 83.9585C149.269 84.1495 149.256 84.3623 149.256 84.5968V87.3584C149.256 87.5928 149.269 87.8099 149.295 88.0097C149.33 88.2007 149.395 88.3527 149.491 88.4656C149.586 88.5785 149.734 88.6349 149.933 88.6349ZM154.3 89.7422L153.141 82.213H154.612L155.277 87.0978L156.058 82.213H157.374L158.117 87.1499L158.833 82.213H160.227L159.041 89.7422H157.543L156.71 84.9876L155.837 89.7422H154.3ZM161.344 89.7422V79.1909H163.103V89.7422H161.344ZM166.789 89.8594C166.224 89.8594 165.764 89.7552 165.408 89.5468C165.052 89.3297 164.787 89.0171 164.613 88.6089C164.448 88.1921 164.366 87.6927 164.366 87.1109V84.8443C164.366 84.2451 164.448 83.7414 164.613 83.3332C164.787 82.9251 165.052 82.6168 165.408 82.4084C165.772 82.1999 166.233 82.0957 166.789 82.0957C167.388 82.0957 167.852 82.2086 168.182 82.4344C168.521 82.6602 168.76 82.9902 168.899 83.4244C169.046 83.8499 169.12 84.371 169.12 84.9876V86.0557H166.124V87.5407C166.124 87.7839 166.146 87.9836 166.189 88.1399C166.241 88.2963 166.32 88.4092 166.424 88.4786C166.528 88.5481 166.654 88.5828 166.802 88.5828C166.958 88.5828 167.084 88.5481 167.179 88.4786C167.275 88.4005 167.344 88.2919 167.388 88.153C167.431 88.0053 167.453 87.823 167.453 87.6059V86.9806H169.107V87.4886C169.107 88.2528 168.916 88.839 168.534 89.2472C168.152 89.6553 167.57 89.8594 166.789 89.8594ZM166.124 85.183H167.453V84.4665C167.453 84.206 167.431 83.9976 167.388 83.8413C167.344 83.6763 167.275 83.559 167.179 83.4895C167.084 83.4114 166.949 83.3723 166.776 83.3723C166.619 83.3723 166.493 83.4114 166.398 83.4895C166.302 83.5677 166.233 83.698 166.189 83.8803C166.146 84.0627 166.124 84.3232 166.124 84.6619V85.183ZM172.016 89.8594C171.417 89.8594 170.961 89.6467 170.648 89.2211C170.344 88.7956 170.192 88.1139 170.192 87.176V84.8703C170.192 84.3493 170.249 83.8803 170.362 83.4635C170.483 83.0467 170.674 82.7167 170.935 82.4735C171.195 82.2217 171.547 82.0957 171.99 82.0957C172.259 82.0957 172.507 82.1522 172.732 82.2651C172.967 82.3693 173.18 82.5082 173.371 82.6819V79.1909H175.142V89.7422H173.371V89.2081C173.171 89.4078 172.958 89.5685 172.732 89.6901C172.507 89.803 172.268 89.8594 172.016 89.8594ZM172.667 88.6349C172.763 88.6349 172.871 88.6132 172.993 88.5698C173.114 88.5264 173.24 88.4656 173.371 88.3874V83.5547C173.266 83.4852 173.153 83.4288 173.032 83.3853C172.91 83.3332 172.784 83.3072 172.654 83.3072C172.402 83.3072 172.224 83.4244 172.12 83.6589C172.025 83.8847 171.977 84.1626 171.977 84.4926V87.3063C171.977 87.5581 171.994 87.7839 172.029 87.9836C172.064 88.1834 172.129 88.344 172.224 88.4656C172.328 88.5785 172.476 88.6349 172.667 88.6349ZM178.694 92.2172C178.182 92.2172 177.73 92.1651 177.339 92.0609C176.948 91.9567 176.644 91.796 176.427 91.5789C176.21 91.3618 176.102 91.0796 176.102 90.7322C176.102 90.4977 176.149 90.285 176.245 90.0939C176.349 89.9115 176.488 89.7509 176.662 89.6119C176.835 89.473 177.022 89.3557 177.222 89.2602C176.935 89.1821 176.714 89.0561 176.558 88.8824C176.41 88.7088 176.336 88.5003 176.336 88.2572C176.336 87.9619 176.41 87.7101 176.558 87.5017C176.705 87.2932 176.909 87.0718 177.17 86.8373C176.901 86.6202 176.697 86.351 176.558 86.0297C176.427 85.6997 176.362 85.2698 176.362 84.7401C176.362 84.1669 176.453 83.6849 176.636 83.2942C176.827 82.8947 177.1 82.5951 177.456 82.3953C177.821 82.1956 178.264 82.0957 178.785 82.0957C179.185 82.0957 179.519 82.1565 179.788 82.2781C180.057 82.391 180.279 82.5647 180.452 82.7992C180.522 82.6949 180.644 82.5647 180.817 82.4084C180.991 82.252 181.191 82.1218 181.416 82.0176L181.651 81.9134L182.081 82.8643C181.985 82.8903 181.855 82.9338 181.69 82.9945C181.534 83.0553 181.377 83.1205 181.221 83.1899C181.065 83.2594 180.943 83.3202 180.856 83.3723C180.934 83.546 181 83.7631 181.052 84.0236C181.104 84.2842 181.13 84.5317 181.13 84.7661C181.13 85.2959 181.047 85.7561 180.882 86.1469C180.717 86.5377 180.461 86.8417 180.114 87.0588C179.775 87.2672 179.332 87.3714 178.785 87.3714C178.603 87.3714 178.425 87.3584 178.251 87.3323C178.077 87.2976 177.917 87.2585 177.769 87.2151C177.717 87.2932 177.665 87.3757 177.613 87.4626C177.569 87.5494 177.548 87.6406 177.548 87.7361C177.548 87.8317 177.6 87.9098 177.704 87.9706C177.808 88.0314 177.982 88.0748 178.225 88.1009L179.814 88.2572C180.431 88.318 180.887 88.5134 181.182 88.8434C181.477 89.1647 181.625 89.6032 181.625 90.159C181.625 90.6106 181.521 90.9884 181.312 91.2923C181.112 91.5963 180.795 91.8264 180.361 91.9827C179.936 92.139 179.38 92.2172 178.694 92.2172ZM178.889 90.8885C179.376 90.8885 179.74 90.8407 179.984 90.7452C180.227 90.6497 180.348 90.476 180.348 90.2242C180.348 90.0852 180.318 89.9723 180.257 89.8855C180.196 89.7986 180.088 89.7292 179.931 89.6771C179.775 89.6163 179.554 89.5728 179.267 89.5468L177.977 89.4296C177.882 89.5077 177.795 89.5902 177.717 89.6771C177.647 89.7552 177.591 89.8421 177.548 89.9376C177.504 90.0331 177.482 90.133 177.482 90.2372C177.482 90.4543 177.587 90.615 177.795 90.7192C178.004 90.8321 178.368 90.8885 178.889 90.8885ZM178.785 86.2381C178.941 86.2381 179.067 86.2121 179.163 86.1599C179.258 86.0992 179.332 86.008 179.384 85.8864C179.436 85.7561 179.471 85.5955 179.489 85.4044C179.506 85.2134 179.515 84.9919 179.515 84.7401C179.515 84.4882 179.506 84.2668 179.489 84.0757C179.471 83.8847 179.436 83.724 179.384 83.5938C179.341 83.4635 179.271 83.368 179.176 83.3072C179.08 83.2464 178.95 83.216 178.785 83.216C178.629 83.216 178.499 83.2464 178.394 83.3072C178.299 83.368 178.225 83.4635 178.173 83.5938C178.129 83.7153 178.095 83.8717 178.069 84.0627C178.051 84.2538 178.043 84.4795 178.043 84.7401C178.043 84.9832 178.051 85.2003 178.069 85.3914C178.086 85.5738 178.121 85.7301 178.173 85.8603C178.225 85.9819 178.299 86.0774 178.394 86.1469C178.499 86.2077 178.629 86.2381 178.785 86.2381ZM184.84 89.8594C184.275 89.8594 183.815 89.7552 183.459 89.5468C183.103 89.3297 182.838 89.0171 182.664 88.6089C182.499 88.1921 182.417 87.6927 182.417 87.1109V84.8443C182.417 84.2451 182.499 83.7414 182.664 83.3332C182.838 82.9251 183.103 82.6168 183.459 82.4084C183.824 82.1999 184.284 82.0957 184.84 82.0957C185.439 82.0957 185.903 82.2086 186.233 82.4344C186.572 82.6602 186.811 82.9902 186.95 83.4244C187.098 83.8499 187.171 84.371 187.171 84.9876V86.0557H184.175V87.5407C184.175 87.7839 184.197 87.9836 184.24 88.1399C184.293 88.2963 184.371 88.4092 184.475 88.4786C184.579 88.5481 184.705 88.5828 184.853 88.5828C185.009 88.5828 185.135 88.5481 185.23 88.4786C185.326 88.4005 185.395 88.2919 185.439 88.153C185.482 88.0053 185.504 87.823 185.504 87.6059V86.9806H187.158V87.4886C187.158 88.2528 186.967 88.839 186.585 89.2472C186.203 89.6553 185.621 89.8594 184.84 89.8594ZM184.175 85.183H185.504V84.4665C185.504 84.206 185.482 83.9976 185.439 83.8413C185.395 83.6763 185.326 83.559 185.23 83.4895C185.135 83.4114 185 83.3723 184.827 83.3723C184.67 83.3723 184.544 83.4114 184.449 83.4895C184.353 83.5677 184.284 83.698 184.24 83.8803C184.197 84.0627 184.175 84.3232 184.175 84.6619V85.183ZM190.067 89.8594C189.468 89.8594 189.012 89.6467 188.699 89.2211C188.395 88.7956 188.243 88.1139 188.243 87.176V84.8703C188.243 84.3493 188.3 83.8803 188.413 83.4635C188.534 83.0467 188.725 82.7167 188.986 82.4735C189.246 82.2217 189.598 82.0957 190.041 82.0957C190.31 82.0957 190.558 82.1522 190.783 82.2651C191.018 82.3693 191.231 82.5082 191.422 82.6819V79.1909H193.193V89.7422H191.422V89.2081C191.222 89.4078 191.009 89.5685 190.783 89.6901C190.558 89.803 190.319 89.8594 190.067 89.8594ZM190.718 88.6349C190.814 88.6349 190.922 88.6132 191.044 88.5698C191.166 88.5264 191.291 88.4656 191.422 88.3874V83.5547C191.318 83.4852 191.205 83.4288 191.083 83.3853C190.961 83.3332 190.836 83.3072 190.705 83.3072C190.453 83.3072 190.275 83.4244 190.171 83.6589C190.076 83.8847 190.028 84.1626 190.028 84.4926V87.3063C190.028 87.5581 190.045 87.7839 190.08 87.9836C190.115 88.1834 190.18 88.344 190.275 88.4656C190.38 88.5785 190.527 88.6349 190.718 88.6349ZM194.596 86.0818V84.8834H197.735V86.0818H194.596ZM199.278 89.7422V79.1909H201.87C202.339 79.1909 202.761 79.2343 203.134 79.3211C203.516 79.408 203.842 79.5556 204.111 79.764C204.389 79.9638 204.602 80.2373 204.749 80.5847C204.897 80.932 204.971 81.3706 204.971 81.9003C204.971 82.3259 204.91 82.6906 204.788 82.9945C204.675 83.2985 204.506 83.5417 204.28 83.724C204.055 83.8977 203.772 84.0149 203.434 84.0757C203.85 84.1452 204.194 84.2928 204.463 84.5186C204.741 84.7357 204.945 85.0223 205.075 85.3784C205.214 85.7344 205.283 86.1643 205.283 86.668C205.283 87.1717 205.218 87.6189 205.088 88.0097C204.966 88.3918 204.78 88.7131 204.528 88.9736C204.285 89.2255 203.976 89.4165 203.603 89.5468C203.238 89.6771 202.808 89.7422 202.313 89.7422H199.278ZM201.206 88.3874H201.936C202.517 88.3874 202.913 88.2485 203.121 87.9706C203.329 87.684 203.434 87.2455 203.434 86.6549C203.434 86.2294 203.382 85.8864 203.277 85.6259C203.182 85.3567 203.017 85.1569 202.782 85.0267C202.557 84.8964 202.253 84.8313 201.87 84.8313H201.206V88.3874ZM201.206 83.5026H201.857C202.24 83.5026 202.535 83.4461 202.743 83.3332C202.952 83.2203 203.095 83.0467 203.173 82.8122C203.26 82.5777 203.303 82.2824 203.303 81.9264C203.303 81.553 203.238 81.2664 203.108 81.0666C202.986 80.8582 202.8 80.7193 202.548 80.6498C202.296 80.5716 201.975 80.5326 201.584 80.5326H201.206V83.5026ZM207.871 89.8594C207.532 89.8594 207.241 89.7726 206.998 89.5989C206.755 89.4165 206.568 89.1907 206.438 88.9215C206.308 88.6436 206.243 88.3571 206.243 88.0618C206.243 87.5928 206.33 87.1977 206.503 86.8764C206.677 86.5551 206.907 86.2859 207.194 86.0688C207.48 85.8517 207.806 85.6649 208.171 85.5086C208.535 85.3436 208.904 85.196 209.278 85.0657V84.4144C209.278 84.1973 209.26 84.0149 209.226 83.8673C209.2 83.7197 209.143 83.6068 209.056 83.5286C208.978 83.4505 208.852 83.4114 208.679 83.4114C208.531 83.4114 208.409 83.4461 208.314 83.5156C208.227 83.5851 208.162 83.6849 208.118 83.8152C208.084 83.9368 208.062 84.0801 208.053 84.2451L208.027 84.701L206.347 84.6359C206.373 83.7674 206.586 83.1292 206.985 82.721C207.393 82.3042 208.01 82.0957 208.835 82.0957C209.59 82.0957 210.138 82.3042 210.476 82.721C210.824 83.1378 210.997 83.7023 210.997 84.4144V87.8924C210.997 88.1703 211.002 88.4222 211.01 88.648C211.028 88.8738 211.045 89.0778 211.062 89.2602C211.088 89.4426 211.11 89.6032 211.128 89.7422H209.538C209.512 89.5685 209.478 89.3731 209.434 89.156C209.399 88.9302 209.373 88.7652 209.356 88.661C209.269 88.9649 209.104 89.2428 208.861 89.4947C208.618 89.7378 208.288 89.8594 207.871 89.8594ZM208.522 88.5438C208.635 88.5438 208.739 88.5177 208.835 88.4656C208.939 88.4048 209.03 88.3353 209.108 88.2572C209.187 88.179 209.243 88.1096 209.278 88.0488V85.9515C209.087 86.0644 208.904 86.1773 208.731 86.2902C208.566 86.4031 208.418 86.529 208.288 86.668C208.166 86.7982 208.071 86.9415 208.001 87.0978C207.94 87.2542 207.91 87.4365 207.91 87.6449C207.91 87.9228 207.962 88.1443 208.066 88.3093C208.179 88.4656 208.331 88.5438 208.522 88.5438ZM214.347 89.8594C213.713 89.8594 213.192 89.6901 212.784 89.3514C212.376 89.0127 212.085 88.5177 211.911 87.8664L213.227 87.3584C213.331 87.7665 213.47 88.0792 213.644 88.2963C213.817 88.5134 214.043 88.6219 214.321 88.6219C214.529 88.6219 214.686 88.5698 214.79 88.4656C214.894 88.3614 214.946 88.2181 214.946 88.0357C214.946 87.8273 214.881 87.6406 214.751 87.4756C214.629 87.3019 214.416 87.0892 214.112 86.8373L213.201 86.0688C212.871 85.7822 212.601 85.4913 212.393 85.196C212.193 84.892 212.093 84.5143 212.093 84.0627C212.093 83.6545 212.185 83.3072 212.367 83.0206C212.558 82.7253 212.814 82.4995 213.136 82.3432C213.466 82.1782 213.83 82.0957 214.23 82.0957C214.838 82.0957 215.324 82.2781 215.689 82.6428C216.062 82.9989 216.301 83.4678 216.405 84.0497L215.246 84.5447C215.202 84.3363 215.137 84.1452 215.05 83.9715C214.972 83.7892 214.868 83.6415 214.738 83.5286C214.607 83.4157 214.456 83.3593 214.282 83.3593C214.099 83.3593 213.952 83.4157 213.839 83.5286C213.735 83.6415 213.683 83.7848 213.683 83.9585C213.683 84.1061 213.743 84.2581 213.865 84.4144C213.995 84.5707 214.178 84.7488 214.412 84.9485L215.337 85.7822C215.537 85.9559 215.728 86.1426 215.91 86.3423C216.092 86.5421 216.244 86.7678 216.366 87.0197C216.488 87.2628 216.548 87.5451 216.548 87.8664C216.548 88.3006 216.449 88.6653 216.249 88.9606C216.058 89.2559 215.793 89.4817 215.454 89.638C215.124 89.7856 214.755 89.8594 214.347 89.8594ZM219.797 89.8594C219.233 89.8594 218.772 89.7552 218.416 89.5468C218.06 89.3297 217.795 89.0171 217.622 88.6089C217.457 88.1921 217.374 87.6927 217.374 87.1109V84.8443C217.374 84.2451 217.457 83.7414 217.622 83.3332C217.795 82.9251 218.06 82.6168 218.416 82.4084C218.781 82.1999 219.241 82.0957 219.797 82.0957C220.396 82.0957 220.861 82.2086 221.191 82.4344C221.53 82.6602 221.768 82.9902 221.907 83.4244C222.055 83.8499 222.129 84.371 222.129 84.9876V86.0557H219.133V87.5407C219.133 87.7839 219.154 87.9836 219.198 88.1399C219.25 88.2963 219.328 88.4092 219.432 88.4786C219.537 88.5481 219.662 88.5828 219.81 88.5828C219.966 88.5828 220.092 88.5481 220.188 88.4786C220.283 88.4005 220.353 88.2919 220.396 88.153C220.44 88.0053 220.461 87.823 220.461 87.6059V86.9806H222.116V87.4886C222.116 88.2528 221.925 88.839 221.543 89.2472C221.16 89.6553 220.579 89.8594 219.797 89.8594ZM219.133 85.183H220.461V84.4665C220.461 84.206 220.44 83.9976 220.396 83.8413C220.353 83.6763 220.283 83.559 220.188 83.4895C220.092 83.4114 219.958 83.3723 219.784 83.3723C219.628 83.3723 219.502 83.4114 219.406 83.4895C219.311 83.5677 219.241 83.698 219.198 83.8803C219.154 84.0627 219.133 84.3232 219.133 84.6619V85.183ZM225.024 89.8594C224.425 89.8594 223.969 89.6467 223.657 89.2211C223.353 88.7956 223.201 88.1139 223.201 87.176V84.8703C223.201 84.3493 223.257 83.8803 223.37 83.4635C223.492 83.0467 223.683 82.7167 223.943 82.4735C224.204 82.2217 224.555 82.0957 224.998 82.0957C225.268 82.0957 225.515 82.1522 225.741 82.2651C225.975 82.3693 226.188 82.5082 226.379 82.6819V79.1909H228.151V89.7422H226.379V89.2081C226.179 89.4078 225.967 89.5685 225.741 89.6901C225.515 89.803 225.276 89.8594 225.024 89.8594ZM225.676 88.6349C225.771 88.6349 225.88 88.6132 226.001 88.5698C226.123 88.5264 226.249 88.4656 226.379 88.3874V83.5547C226.275 83.4852 226.162 83.4288 226.04 83.3853C225.919 83.3332 225.793 83.3072 225.663 83.3072C225.411 83.3072 225.233 83.4244 225.129 83.6589C225.033 83.8847 224.985 84.1626 224.985 84.4926V87.3063C224.985 87.5581 225.003 87.7839 225.037 87.9836C225.072 88.1834 225.137 88.344 225.233 88.4656C225.337 88.5785 225.485 88.6349 225.676 88.6349ZM235.43 89.8855C234.796 89.8855 234.266 89.7639 233.841 89.5207C233.415 89.2689 233.094 88.9042 232.877 88.4265C232.66 87.9489 232.538 87.3627 232.512 86.668L234.167 86.3423C234.184 86.7505 234.232 87.1109 234.31 87.4235C234.397 87.7361 234.523 87.9793 234.688 88.153C234.861 88.318 235.087 88.4005 235.365 88.4005C235.678 88.4005 235.899 88.3093 236.029 88.1269C236.16 87.9359 236.225 87.6971 236.225 87.4105C236.225 86.9502 236.12 86.5724 235.912 86.2772C235.704 85.9819 235.426 85.6867 235.078 85.3914L233.75 84.219C233.376 83.8977 233.077 83.5417 232.851 83.1509C232.634 82.7514 232.525 82.2607 232.525 81.6789C232.525 80.8452 232.768 80.2026 233.255 79.751C233.741 79.2994 234.405 79.0736 235.248 79.0736C235.743 79.0736 236.155 79.1518 236.485 79.3081C236.815 79.4557 237.076 79.6641 237.267 79.9334C237.467 80.2026 237.614 80.5109 237.71 80.8582C237.805 81.1969 237.866 81.5573 237.892 81.9394L236.251 82.226C236.233 81.896 236.194 81.6007 236.134 81.3402C236.081 81.0797 235.982 80.8756 235.834 80.728C235.695 80.5803 235.487 80.5065 235.209 80.5065C234.922 80.5065 234.701 80.602 234.544 80.7931C234.397 80.9755 234.323 81.2056 234.323 81.4835C234.323 81.8395 234.397 82.1348 234.544 82.3693C234.692 82.5951 234.905 82.8295 235.183 83.0727L236.498 84.232C236.932 84.5968 237.302 85.0267 237.605 85.5217C237.918 86.008 238.074 86.5985 238.074 87.2932C238.074 87.7969 237.962 88.2442 237.736 88.6349C237.519 89.0257 237.21 89.334 236.811 89.5598C236.42 89.7769 235.96 89.8855 235.43 89.8855ZM241.372 89.8594C240.825 89.8594 240.373 89.7596 240.017 89.5598C239.661 89.3514 239.392 89.0518 239.21 88.661C239.036 88.2702 238.949 87.7969 238.949 87.2411V84.714C238.949 84.1582 239.036 83.6849 239.21 83.2942C239.392 82.9034 239.661 82.6081 240.017 82.4084C240.373 82.1999 240.825 82.0957 241.372 82.0957C241.919 82.0957 242.371 82.1999 242.727 82.4084C243.091 82.6081 243.361 82.9034 243.534 83.2942C243.717 83.6849 243.808 84.1582 243.808 84.714V87.2411C243.808 87.7969 243.717 88.2702 243.534 88.661C243.361 89.0518 243.091 89.3514 242.727 89.5598C242.371 89.7596 241.919 89.8594 241.372 89.8594ZM241.385 88.6349C241.585 88.6349 241.732 88.5785 241.828 88.4656C241.923 88.3527 241.984 88.2007 242.01 88.0097C242.036 87.8099 242.049 87.5928 242.049 87.3584V84.5968C242.049 84.3623 242.036 84.1495 242.01 83.9585C241.984 83.7674 241.923 83.6155 241.828 83.5026C241.732 83.381 241.585 83.3202 241.385 83.3202C241.185 83.3202 241.038 83.381 240.942 83.5026C240.847 83.6155 240.781 83.7674 240.747 83.9585C240.721 84.1495 240.708 84.3623 240.708 84.5968V87.3584C240.708 87.5928 240.721 87.8099 240.747 88.0097C240.781 88.2007 240.847 88.3527 240.942 88.4656C241.038 88.5785 241.185 88.6349 241.385 88.6349ZM245.385 89.7422V83.4505H244.577V82.213H245.385V81.731C245.385 81.2794 245.424 80.8886 245.502 80.5586C245.589 80.2199 245.763 79.9594 246.023 79.777C246.293 79.5947 246.696 79.5035 247.235 79.5035C247.4 79.5035 247.556 79.5122 247.704 79.5295C247.851 79.5382 248.016 79.5556 248.199 79.5816V80.8973C248.129 80.8799 248.047 80.8669 247.951 80.8582C247.864 80.8409 247.782 80.8322 247.704 80.8322C247.495 80.8322 247.352 80.8973 247.274 81.0276C247.196 81.1578 247.157 81.3489 247.157 81.6007V82.213H248.199V83.4505H247.157V89.7422H245.385ZM251.152 89.8334C250.674 89.8334 250.297 89.7552 250.019 89.5989C249.749 89.4426 249.558 89.2168 249.446 88.9215C249.333 88.6263 249.276 88.2746 249.276 87.8664V83.3853H248.521V82.213H249.276V79.9594H251.061V82.213H252.207V83.3853H251.061V87.7101C251.061 87.9706 251.117 88.1573 251.23 88.2702C251.343 88.3744 251.512 88.4265 251.738 88.4265C251.834 88.4265 251.925 88.4222 252.012 88.4135C252.107 88.4048 252.198 88.3961 252.285 88.3874V89.7422C252.138 89.7596 251.964 89.7769 251.764 89.7943C251.573 89.8203 251.369 89.8334 251.152 89.8334ZM254.096 89.7422L252.937 82.213H254.409L255.073 87.0978L255.855 82.213H257.171L257.913 87.1499L258.629 82.213H260.023L258.838 89.7422H257.34L256.506 84.9876L255.633 89.7422H254.096ZM262.482 89.8594C262.144 89.8594 261.853 89.7726 261.61 89.5989C261.366 89.4165 261.18 89.1907 261.049 88.9215C260.919 88.6436 260.854 88.3571 260.854 88.0618C260.854 87.5928 260.941 87.1977 261.115 86.8764C261.288 86.5551 261.518 86.2859 261.805 86.0688C262.092 85.8517 262.417 85.6649 262.782 85.5086C263.147 85.3436 263.516 85.196 263.889 85.0657V84.4144C263.889 84.1973 263.872 84.0149 263.837 83.8673C263.811 83.7197 263.755 83.6068 263.668 83.5286C263.59 83.4505 263.464 83.4114 263.29 83.4114C263.142 83.4114 263.021 83.4461 262.925 83.5156C262.838 83.5851 262.773 83.6849 262.73 83.8152C262.695 83.9368 262.673 84.0801 262.665 84.2451L262.639 84.701L260.958 84.6359C260.984 83.7674 261.197 83.1292 261.597 82.721C262.005 82.3042 262.621 82.0957 263.446 82.0957C264.202 82.0957 264.749 82.3042 265.088 82.721C265.435 83.1378 265.609 83.7023 265.609 84.4144V87.8924C265.609 88.1703 265.613 88.4222 265.622 88.648C265.639 88.8738 265.656 89.0778 265.674 89.2602C265.7 89.4426 265.722 89.6032 265.739 89.7422H264.15C264.124 89.5685 264.089 89.3731 264.045 89.156C264.011 88.9302 263.985 88.7652 263.967 88.661C263.88 88.9649 263.715 89.2428 263.472 89.4947C263.229 89.7378 262.899 89.8594 262.482 89.8594ZM263.134 88.5438C263.247 88.5438 263.351 88.5177 263.446 88.4656C263.55 88.4048 263.642 88.3353 263.72 88.2572C263.798 88.179 263.854 88.1096 263.889 88.0488V85.9515C263.698 86.0644 263.516 86.1773 263.342 86.2902C263.177 86.4031 263.029 86.529 262.899 86.668C262.778 86.7982 262.682 86.9415 262.613 87.0978C262.552 87.2542 262.521 87.4365 262.521 87.6449C262.521 87.9228 262.574 88.1443 262.678 88.3093C262.791 88.4656 262.943 88.5438 263.134 88.5438ZM266.952 89.7422V82.213H268.724V83.3723C268.984 82.9294 269.245 82.6124 269.505 82.4214C269.766 82.2217 270.053 82.1218 270.365 82.1218C270.417 82.1218 270.461 82.1261 270.495 82.1348C270.539 82.1348 270.587 82.1392 270.639 82.1478V83.9845C270.535 83.9411 270.417 83.9064 270.287 83.8803C270.165 83.8456 270.04 83.8282 269.909 83.8282C269.675 83.8282 269.462 83.8847 269.271 83.9976C269.08 84.1105 268.898 84.2972 268.724 84.5577V89.7422H266.952ZM273.785 89.8594C273.221 89.8594 272.76 89.7552 272.404 89.5468C272.048 89.3297 271.783 89.0171 271.61 88.6089C271.445 88.1921 271.362 87.6927 271.362 87.1109V84.8443C271.362 84.2451 271.445 83.7414 271.61 83.3332C271.783 82.9251 272.048 82.6168 272.404 82.4084C272.769 82.1999 273.229 82.0957 273.785 82.0957C274.384 82.0957 274.849 82.2086 275.179 82.4344C275.518 82.6602 275.756 82.9902 275.895 83.4244C276.043 83.8499 276.117 84.371 276.117 84.9876V86.0557H273.121V87.5407C273.121 87.7839 273.142 87.9836 273.186 88.1399C273.238 88.2963 273.316 88.4092 273.42 88.4786C273.525 88.5481 273.65 88.5828 273.798 88.5828C273.954 88.5828 274.08 88.5481 274.176 88.4786C274.271 88.4005 274.341 88.2919 274.384 88.153C274.428 88.0053 274.449 87.823 274.449 87.6059V86.9806H276.104V87.4886C276.104 88.2528 275.913 88.839 275.531 89.2472C275.149 89.6553 274.567 89.8594 273.785 89.8594ZM273.121 85.183H274.449V84.4665C274.449 84.206 274.428 83.9976 274.384 83.8413C274.341 83.6763 274.271 83.559 274.176 83.4895C274.08 83.4114 273.946 83.3723 273.772 83.3723C273.616 83.3723 273.49 83.4114 273.394 83.4895C273.299 83.5677 273.229 83.698 273.186 83.8803C273.142 84.0627 273.121 84.3232 273.121 84.6619V85.183ZM283.444 89.8855C282.671 89.8855 282.063 89.7335 281.62 89.4296C281.186 89.1256 280.882 88.7131 280.708 88.1921C280.534 87.6623 280.447 87.0544 280.447 86.3684V82.6038C280.447 81.883 280.534 81.2577 280.708 80.728C280.882 80.1982 281.186 79.7901 281.62 79.5035C282.063 79.2169 282.671 79.0736 283.444 79.0736C284.173 79.0736 284.742 79.1995 285.15 79.4514C285.567 79.6945 285.862 80.0463 286.036 80.5065C286.209 80.9668 286.296 81.5009 286.296 82.1088V82.9945H284.447V82.0827C284.447 81.7874 284.429 81.5182 284.394 81.2751C284.368 81.0319 284.286 80.8409 284.147 80.7019C284.017 80.5543 283.787 80.4805 283.457 80.4805C283.127 80.4805 282.883 80.5586 282.727 80.7149C282.579 80.8626 282.484 81.0666 282.44 81.3272C282.397 81.579 282.375 81.8656 282.375 82.1869V86.7722C282.375 87.1543 282.406 87.4713 282.467 87.7231C282.527 87.9663 282.636 88.153 282.792 88.2832C282.957 88.4048 283.179 88.4656 283.457 88.4656C283.778 88.4656 284.004 88.3918 284.134 88.2442C284.273 88.0878 284.36 87.8838 284.394 87.6319C284.429 87.3801 284.447 87.0978 284.447 86.7852V85.8343H286.296V86.681C286.296 87.3063 286.214 87.8621 286.049 88.3484C285.884 88.826 285.593 89.2038 285.176 89.4817C284.768 89.7509 284.19 89.8855 283.444 89.8855ZM289.801 89.8594C289.254 89.8594 288.802 89.7596 288.446 89.5598C288.09 89.3514 287.821 89.0518 287.639 88.661C287.465 88.2702 287.378 87.7969 287.378 87.2411V84.714C287.378 84.1582 287.465 83.6849 287.639 83.2942C287.821 82.9034 288.09 82.6081 288.446 82.4084C288.802 82.1999 289.254 82.0957 289.801 82.0957C290.348 82.0957 290.8 82.1999 291.156 82.4084C291.52 82.6081 291.79 82.9034 291.963 83.2942C292.146 83.6849 292.237 84.1582 292.237 84.714V87.2411C292.237 87.7969 292.146 88.2702 291.963 88.661C291.79 89.0518 291.52 89.3514 291.156 89.5598C290.8 89.7596 290.348 89.8594 289.801 89.8594ZM289.814 88.6349C290.014 88.6349 290.161 88.5785 290.257 88.4656C290.352 88.3527 290.413 88.2007 290.439 88.0097C290.465 87.8099 290.478 87.5928 290.478 87.3584V84.5968C290.478 84.3623 290.465 84.1495 290.439 83.9585C290.413 83.7674 290.352 83.6155 290.257 83.5026C290.161 83.381 290.014 83.3202 289.814 83.3202C289.614 83.3202 289.467 83.381 289.371 83.5026C289.275 83.6155 289.21 83.7674 289.176 83.9585C289.15 84.1495 289.137 84.3623 289.137 84.5968V87.3584C289.137 87.5928 289.15 87.8099 289.176 88.0097C289.21 88.2007 289.275 88.3527 289.371 88.4656C289.467 88.5785 289.614 88.6349 289.814 88.6349ZM293.449 89.7422V82.213H295.156V82.8643C295.416 82.5864 295.698 82.3867 296.002 82.2651C296.306 82.1348 296.615 82.0697 296.927 82.0697C297.223 82.0697 297.479 82.1435 297.696 82.2911C297.922 82.4388 298.087 82.6732 298.191 82.9945C298.477 82.6645 298.781 82.4301 299.103 82.2911C299.424 82.1435 299.754 82.0697 300.093 82.0697C300.362 82.0697 300.601 82.1392 300.809 82.2781C301.018 82.4084 301.183 82.6081 301.304 82.8773C301.426 83.1378 301.487 83.4678 301.487 83.8673V89.7422H299.793V84.0236C299.793 83.737 299.745 83.5417 299.65 83.4374C299.554 83.3245 299.42 83.2681 299.246 83.2681C299.107 83.2681 298.951 83.3072 298.777 83.3853C298.612 83.4635 298.46 83.572 298.321 83.711C298.321 83.737 298.321 83.7631 298.321 83.7892C298.321 83.8065 298.321 83.8326 298.321 83.8673V89.7422H296.641V84.0236C296.641 83.737 296.589 83.5417 296.484 83.4374C296.389 83.3245 296.254 83.2681 296.081 83.2681C295.942 83.2681 295.79 83.3072 295.625 83.3853C295.46 83.4635 295.303 83.572 295.156 83.711V89.7422H293.449ZM302.799 92.2172V82.213H304.571V82.7861C304.788 82.5777 305.027 82.4127 305.287 82.2911C305.548 82.1609 305.821 82.0957 306.108 82.0957C306.447 82.0957 306.724 82.1739 306.942 82.3302C307.159 82.4865 307.328 82.6949 307.45 82.9555C307.571 83.2073 307.654 83.4809 307.697 83.7761C307.749 84.0627 307.775 84.3406 307.775 84.6098V87.163C307.775 87.658 307.714 88.1096 307.593 88.5177C307.48 88.9259 307.293 89.2515 307.033 89.4947C306.781 89.7378 306.442 89.8594 306.017 89.8594C305.748 89.8594 305.491 89.7943 305.248 89.664C305.014 89.5338 304.788 89.3688 304.571 89.169V92.2172H302.799ZM305.352 88.6219C305.543 88.6219 305.682 88.5611 305.769 88.4396C305.865 88.3093 305.926 88.1399 305.952 87.9315C305.986 87.7144 306.004 87.4799 306.004 87.2281V84.5317C306.004 84.2972 305.986 84.0888 305.952 83.9064C305.917 83.7153 305.852 83.5634 305.756 83.4505C305.661 83.3376 305.522 83.2811 305.339 83.2811C305.2 83.2811 305.061 83.3159 304.923 83.3853C304.792 83.4461 304.675 83.5199 304.571 83.6068V88.3614C304.684 88.4396 304.805 88.5047 304.936 88.5568C305.066 88.6002 305.205 88.6219 305.352 88.6219ZM310.453 89.8594C310.115 89.8594 309.824 89.7726 309.581 89.5989C309.337 89.4165 309.151 89.1907 309.02 88.9215C308.89 88.6436 308.825 88.3571 308.825 88.0618C308.825 87.5928 308.912 87.1977 309.086 86.8764C309.259 86.5551 309.489 86.2859 309.776 86.0688C310.063 85.8517 310.388 85.6649 310.753 85.5086C311.118 85.3436 311.487 85.196 311.86 85.0657V84.4144C311.86 84.1973 311.843 84.0149 311.808 83.8673C311.782 83.7197 311.726 83.6068 311.639 83.5286C311.561 83.4505 311.435 83.4114 311.261 83.4114C311.113 83.4114 310.992 83.4461 310.896 83.5156C310.809 83.5851 310.744 83.6849 310.701 83.8152C310.666 83.9368 310.644 84.0801 310.636 84.2451L310.61 84.701L308.929 84.6359C308.955 83.7674 309.168 83.1292 309.568 82.721C309.976 82.3042 310.592 82.0957 311.417 82.0957C312.173 82.0957 312.72 82.3042 313.059 82.721C313.406 83.1378 313.58 83.7023 313.58 84.4144V87.8924C313.58 88.1703 313.584 88.4222 313.593 88.648C313.61 88.8738 313.627 89.0778 313.645 89.2602C313.671 89.4426 313.693 89.6032 313.71 89.7422H312.121C312.095 89.5685 312.06 89.3731 312.016 89.156C311.982 88.9302 311.956 88.7652 311.938 88.661C311.851 88.9649 311.686 89.2428 311.443 89.4947C311.2 89.7378 310.87 89.8594 310.453 89.8594ZM311.105 88.5438C311.218 88.5438 311.322 88.5177 311.417 88.4656C311.521 88.4048 311.613 88.3353 311.691 88.2572C311.769 88.179 311.825 88.1096 311.86 88.0488V85.9515C311.669 86.0644 311.487 86.1773 311.313 86.2902C311.148 86.4031 311 86.529 310.87 86.668C310.749 86.7982 310.653 86.9415 310.584 87.0978C310.523 87.2542 310.492 87.4365 310.492 87.6449C310.492 87.9228 310.545 88.1443 310.649 88.3093C310.762 88.4656 310.914 88.5438 311.105 88.5438ZM314.884 89.7422V82.213H316.656V82.9685C316.925 82.708 317.207 82.4995 317.502 82.3432C317.806 82.1782 318.132 82.0957 318.479 82.0957C318.792 82.0957 319.04 82.1739 319.222 82.3302C319.404 82.4778 319.539 82.6776 319.626 82.9294C319.713 83.1813 319.756 83.4548 319.756 83.7501V89.7422H317.984V84.1018C317.984 83.876 317.95 83.7023 317.88 83.5807C317.811 83.4592 317.676 83.3984 317.476 83.3984C317.355 83.3984 317.22 83.4331 317.073 83.5026C316.934 83.572 316.795 83.6589 316.656 83.7631V89.7422H314.884ZM321.106 91.7873V90.5107C321.41 90.5107 321.657 90.4934 321.849 90.4586C322.04 90.4239 322.179 90.3631 322.265 90.2763C322.352 90.1894 322.396 90.0678 322.396 89.9115C322.396 89.7986 322.365 89.6206 322.304 89.3775C322.252 89.1343 322.192 88.8694 322.122 88.5828L320.468 82.213H322.187L323.164 87.176L324.011 82.213H325.717L323.959 90.0418C323.863 90.4847 323.703 90.8321 323.477 91.0839C323.251 91.3357 322.969 91.5138 322.63 91.618C322.291 91.7309 321.896 91.7873 321.445 91.7873H321.106Z" fill="white"/>
<defs>
<filter id="filter0_d_81_321" x="0.839506" y="0.893555" width="345.321" height="117.534" filterUnits="userSpaceOnUse" color-interpolation-filters="sRGB">
<feFlood flood-opacity="0" result="BackgroundImageFix"/>
<feColorMatrix in="SourceAlpha" type="matrix" values="0 0 0 0 0 0 0 0 0 0 0 0 0 0 0 0 0 0 127 0" result="hardAlpha"/>
<feOffset dy="4.16049"/>
<feGaussianBlur stdDeviation="2.08025"/>
<feComposite in2="hardAlpha" operator="out"/>
<feColorMatrix type="matrix" values="0 0 0 0 0 0 0 0 0 0 0 0 0 0 0 0 0 0 0.25 0"/>
<feBlend mode="normal" in2="BackgroundImageFix" result="effect1_dropShadow_81_321"/>
<feBlend mode="normal" in="SourceGraphic" in2="effect1_dropShadow_81_321" result="shape"/>
</filter>
</defs>
</svg>
