<svg width="18" height="27" viewBox="0 0 18 27" fill="none" xmlns="http://www.w3.org/2000/svg">
<path d="M13.8872 0.866211H3.73314C1.67262 0.884774 0.0204926 2.55548 0.0204926 4.616L0.0576199 22.3068C0.0576199 24.3487 1.72831 26.0194 3.78883 26.0194H13.9429C16.0035 26.0009 17.6556 24.3302 17.6556 22.2696L17.6185 4.57886C17.6185 2.51834 15.9478 0.866211 13.8872 0.866211ZM3.73314 2.59259H13.8872C15.001 2.57403 15.8921 3.46507 15.8921 4.57886V18.7612L1.74688 18.7798V4.59743C1.72831 3.48363 2.61935 2.59259 3.73314 2.59259ZM13.9244 24.2745H3.77027C2.65648 24.293 1.76544 23.402 1.76544 22.2882V20.4876L15.9292 20.469V22.2696C15.9292 23.3649 15.0382 24.2745 13.9244 24.2745Z" fill="#555554"/>
<path d="M8.52247 5.28434C8.89374 5.28434 9.20932 4.98732 9.20932 4.59749C9.20932 4.20766 8.89374 3.91064 8.52247 3.91064C8.15121 3.91064 7.83563 4.22623 7.83563 4.59749C7.83563 4.96876 8.15121 5.28434 8.52247 5.28434Z" fill="#555554"/>
<path d="M8.54103 21.7676C8.16976 21.7676 7.85419 22.0832 7.85419 22.4544C7.85419 22.8257 8.16976 23.1413 8.54103 23.1413C8.91229 23.1413 9.22786 22.8443 9.22786 22.4544C9.22786 22.0646 8.91229 21.7676 8.54103 21.7676Z" fill="#555554"/>
</svg>
