<svg width="28" height="24" viewBox="0 0 28 24" fill="none" xmlns="http://www.w3.org/2000/svg">
<path d="M25.1118 0.074707C24.7776 0.074707 24.4621 0.186092 24.1836 0.297471C23.9052 0.408851 22.5315 0.984301 20.471 1.83821C18.4104 2.71068 15.7373 3.82448 13.0828 4.95684C7.77368 7.18443 2.55741 9.39346 2.55741 9.39346H2.6131C2.6131 9.39346 2.26039 9.48628 1.87057 9.74616C1.68493 9.87611 1.46218 10.0432 1.27654 10.3216C1.09091 10.6001 0.942401 11.0085 0.998091 11.4354C1.09091 12.1594 1.55499 12.5863 1.88913 12.8277C2.22327 13.069 2.55741 13.1804 2.55741 13.1804L7.43954 14.8325C7.6623 15.5379 8.92461 19.7146 9.24018 20.6799C9.42581 21.2554 9.59288 21.6081 9.81564 21.8865C9.92702 22.035 10.0384 22.1464 10.1869 22.2392C10.2426 22.2764 10.3168 22.2949 10.3725 22.332C10.3911 22.332 10.4097 22.3321 10.4282 22.3506H10.3725C10.3725 22.3506 10.3911 22.3506 10.4097 22.3506C10.4468 22.3506 10.4839 22.3506 10.521 22.3692C11.3007 22.6105 11.9133 22.1279 11.9133 22.1279H11.9504L14.8463 19.4733L19.6913 23.186L19.8027 23.2417C20.8051 23.6872 21.8261 23.4458 22.3644 23.0003C22.9027 22.5548 23.1255 21.9979 23.1255 21.9979L23.1626 21.9051L26.9124 2.76637C27.0238 2.30229 27.0423 1.85679 26.9124 1.42983C26.801 1.00288 26.4854 0.594475 26.1327 0.390279C25.7615 0.16752 25.4088 0.111827 25.0561 0.111827L25.1118 0.074707ZM25.019 2.13523C25.019 2.13523 25.0189 2.19091 25.0004 2.30229L21.2877 21.2554C21.2877 21.274 21.2506 21.3482 21.1764 21.4039C21.1021 21.4596 21.0278 21.4967 20.7123 21.3853L14.7906 16.8559L11.2079 20.1045L11.9504 15.3151C11.9504 15.3151 21.232 6.68323 21.6219 6.31196C22.0303 5.9407 21.8818 5.86645 21.8818 5.86645C21.9003 5.42093 21.2877 5.73651 21.2877 5.73651L9.09167 13.2918L3.24425 11.3055H3.28137H3.3185L3.35563 11.2869C3.35563 11.2869 8.57191 9.09645 13.881 6.8503C16.5355 5.7365 19.2087 4.60414 21.2692 3.73167C23.3297 2.8592 24.8519 2.22804 24.9447 2.19092C25.0189 2.15379 24.9818 2.1538 25.0375 2.1538L25.019 2.13523Z" fill="#555554"/>
</svg>
