<svg width="24" height="25" viewBox="0 0 24 25" fill="none" xmlns="http://www.w3.org/2000/svg">
<path d="M0.735138 24.0908L2.38727 17.8906C1.44054 16.2014 0.939333 14.2894 0.939333 12.3774C0.939333 6.06586 6.06279 0.923828 12.3743 0.923828C18.6858 0.923828 23.8278 6.02873 23.8464 12.3402C23.8464 18.6517 18.7229 23.7938 12.4114 23.7938C10.518 23.7938 8.64309 23.3297 6.97239 22.4201L0.735138 24.0908ZM7.2694 20.0997L7.65923 20.341C9.10717 21.1949 10.7407 21.6404 12.3929 21.6404C17.5163 21.6404 21.6745 17.4637 21.6559 12.3402C21.6559 7.21678 17.4792 3.07717 12.3557 3.07717C7.23228 3.07717 3.07411 7.25391 3.09267 12.3774C3.09267 14.0666 3.57532 15.7187 4.46635 17.1852L4.70768 17.5751L3.77951 21.0278L7.25084 20.0811L7.2694 20.0997Z" fill="#555554"/>
<path fill-rule="evenodd" clip-rule="evenodd" d="M16.5882 14.178C16.1241 13.8995 15.5115 13.584 14.9546 13.8067C14.5277 13.9924 14.2678 14.6421 13.9893 14.9948C13.8408 15.1618 13.6737 15.199 13.4695 15.1061C11.8731 14.475 10.6479 13.4169 9.7569 11.9318C9.60839 11.7091 9.62695 11.5234 9.81258 11.3193C10.0725 11.0037 10.4066 10.651 10.4809 10.224C10.5551 9.79706 10.3509 9.31442 10.1838 8.92459C9.96109 8.44195 9.7012 7.7551 9.21856 7.49521C8.77304 7.25389 8.19758 7.38384 7.78919 7.71798C7.10235 8.27487 6.78677 9.14734 6.78677 10.0012C6.78677 10.2426 6.8239 10.4839 6.87959 10.7252C7.00953 11.3007 7.28798 11.8204 7.58499 12.3217C7.80775 12.6929 8.04907 13.0642 8.30896 13.4169C9.16287 14.5678 10.2395 15.5888 11.4647 16.3313C12.0773 16.7026 12.7456 17.0367 13.4324 17.2595C14.1935 17.5194 14.8804 17.7793 15.7157 17.6122C16.5882 17.4451 17.4421 16.9068 17.7948 16.0714C17.9062 15.8301 17.9433 15.5517 17.8876 15.2918C17.7762 14.7535 17.0337 14.4379 16.5882 14.1594" fill="#555554"/>
</svg>
